M48
; DRILL file {KiCad (5.1.12)-1} date 06/13/23 13:28:35
; FORMAT={-:-/ absolute / metric / decimal}
; #@! TF.CreationDate,2023-06-13T13:28:35-05:00
; #@! TF.GenerationSoftware,Kicad,Pcbnew,(5.1.12)-1
; #@! TF.FileFunction,Plated,1,2,PTH
FMAT,2
METRIC
T1C1.000
T2C1.100
%
G90
G05
T1
X139.0Y-7.5
X139.0Y-10.04
X139.0Y-12.58
X174.75Y-4.0
X174.75Y-6.54
X174.75Y-9.08
X175.0Y-15.75
X175.0Y-18.29
X175.0Y-20.83
X177.53Y-77.77
X180.07Y-77.77
X180.08Y-41.83
X180.25Y-4.0
X180.25Y-6.54
X180.25Y-9.08
X182.61Y-77.77
X182.62Y-41.83
X185.15Y-77.77
X185.16Y-41.83
X187.69Y-77.77
X187.7Y-41.83
X190.23Y-77.77
T2
X141.7Y-50.56
X144.24Y-50.56
X145.7Y3.05
X145.7Y0.51
X145.7Y-2.03
X145.7Y-4.57
X145.7Y-7.11
X145.7Y-9.65
X145.7Y-12.19
X145.7Y-14.73
X145.7Y-17.27
X145.7Y-19.81
X145.7Y-22.35
X145.7Y-24.89
X145.7Y-27.43
X145.7Y-29.97
X145.7Y-32.51
X145.7Y-35.05
X146.78Y-50.56
X149.32Y-50.56
X151.86Y-50.56
X154.4Y-50.56
X156.94Y-50.56
X159.48Y-50.56
X167.7Y-9.69
X167.7Y-12.23
X167.7Y-14.77
X167.7Y-17.31
X167.7Y-19.85
X167.7Y-22.39
X167.7Y-24.93
X167.7Y-27.47
X167.7Y-30.01
X167.7Y-32.55
X167.7Y-35.09
T0
M30
