%TF.GenerationSoftware,KiCad,Pcbnew,(5.1.12)-1*%
%TF.CreationDate,2023-06-13T13:28:39-05:00*%
%TF.ProjectId,Dispen2,44697370-656e-4322-9e6b-696361645f70,rev?*%
%TF.SameCoordinates,Original*%
%TF.FileFunction,Soldermask,Bot*%
%TF.FilePolarity,Negative*%
%FSLAX46Y46*%
G04 Gerber Fmt 4.6, Leading zero omitted, Abs format (unit mm)*
G04 Created by KiCad (PCBNEW (5.1.12)-1) date 2023-06-13 13:28:39*
%MOMM*%
%LPD*%
G01*
G04 APERTURE LIST*
%ADD10O,1.700000X1.700000*%
%ADD11R,1.700000X1.700000*%
%ADD12O,1.500000X2.000000*%
%ADD13R,1.500000X2.000000*%
%ADD14O,2.000000X1.500000*%
%ADD15R,2.000000X1.500000*%
G04 APERTURE END LIST*
D10*
%TO.C,U2*%
X185160000Y-41830000D03*
X180080000Y-41830000D03*
X182620000Y-41830000D03*
D11*
X187700000Y-41830000D03*
D10*
X180070000Y-77770000D03*
X185150000Y-77770000D03*
D11*
X190230000Y-77770000D03*
D10*
X182610000Y-77770000D03*
X187690000Y-77770000D03*
X177530000Y-77770000D03*
%TD*%
D12*
%TO.C,OLED1*%
X146780000Y-50560000D03*
X149320000Y-50560000D03*
X151860000Y-50560000D03*
X154400000Y-50560000D03*
X156940000Y-50560000D03*
X159480000Y-50560000D03*
D13*
X141700000Y-50560000D03*
D12*
X144240000Y-50560000D03*
%TD*%
D14*
%TO.C,U1*%
X167700000Y-12230000D03*
X167700000Y-14770000D03*
X167700000Y-22390000D03*
X167700000Y-32550000D03*
D15*
X167700000Y-9690000D03*
D14*
X167700000Y-30010000D03*
X167700000Y-17310000D03*
X167700000Y-27470000D03*
X167700000Y-35090000D03*
X167700000Y-19850000D03*
X167700000Y-24930000D03*
D15*
X145700000Y-4570000D03*
D14*
X145700000Y-7110000D03*
X145700000Y-9650000D03*
X145700000Y-12190000D03*
X145700000Y-19810000D03*
X145700000Y-27430000D03*
X145700000Y-29970000D03*
X145700000Y3050000D03*
X145700000Y-14730000D03*
X145700000Y-24890000D03*
X145700000Y-35050000D03*
X145700000Y510000D03*
X145700000Y-32510000D03*
X145700000Y-17270000D03*
X145700000Y-22350000D03*
X145700000Y-2030000D03*
%TD*%
D11*
%TO.C,NiHALL1*%
X139000000Y-7500000D03*
D10*
X139000000Y-10040000D03*
X139000000Y-12580000D03*
%TD*%
%TO.C,M1*%
X175000000Y-20830000D03*
X175000000Y-18290000D03*
D11*
X175000000Y-15750000D03*
%TD*%
D10*
%TO.C,BOTO2*%
X174750000Y-9080000D03*
X174750000Y-6540000D03*
D11*
X174750000Y-4000000D03*
%TD*%
D10*
%TO.C,BOTO1*%
X180250000Y-9080000D03*
X180250000Y-6540000D03*
D11*
X180250000Y-4000000D03*
%TD*%
M02*
