%TF.GenerationSoftware,KiCad,Pcbnew,(5.1.12)-1*%
%TF.CreationDate,2023-06-13T13:28:39-05:00*%
%TF.ProjectId,Dispen2,44697370-656e-4322-9e6b-696361645f70,rev?*%
%TF.SameCoordinates,Original*%
%TF.FileFunction,Copper,L1,Top*%
%TF.FilePolarity,Positive*%
%FSLAX46Y46*%
G04 Gerber Fmt 4.6, Leading zero omitted, Abs format (unit mm)*
G04 Created by KiCad (PCBNEW (5.1.12)-1) date 2023-06-13 13:28:39*
%MOMM*%
%LPD*%
G01*
G04 APERTURE LIST*
%TA.AperFunction,ComponentPad*%
%ADD10O,1.700000X1.700000*%
%TD*%
%TA.AperFunction,ComponentPad*%
%ADD11R,1.700000X1.700000*%
%TD*%
%TA.AperFunction,ComponentPad*%
%ADD12O,1.500000X2.000000*%
%TD*%
%TA.AperFunction,ComponentPad*%
%ADD13R,1.500000X2.000000*%
%TD*%
%TA.AperFunction,ComponentPad*%
%ADD14O,2.000000X1.500000*%
%TD*%
%TA.AperFunction,ComponentPad*%
%ADD15R,2.000000X1.500000*%
%TD*%
%TA.AperFunction,Conductor*%
%ADD16C,0.500000*%
%TD*%
%TA.AperFunction,Conductor*%
%ADD17C,0.254000*%
%TD*%
%TA.AperFunction,Conductor*%
%ADD18C,0.100000*%
%TD*%
G04 APERTURE END LIST*
D10*
%TO.P,U2,7*%
%TO.N,SDA*%
X185160000Y-41830000D03*
%TO.P,U2,5*%
%TO.N,GND*%
X180080000Y-41830000D03*
%TO.P,U2,2*%
%TO.N,+5V*%
X182620000Y-41830000D03*
D11*
%TO.P,U2,8*%
%TO.N,SCL*%
X187700000Y-41830000D03*
D10*
%TO.P,U2,2*%
%TO.N,N/C*%
X180070000Y-77770000D03*
%TO.P,U2,8*%
X185150000Y-77770000D03*
D11*
%TO.P,U2,1*%
%TO.N,Net-(U2-Pad1)*%
X190230000Y-77770000D03*
D10*
%TO.P,U2,7*%
%TO.N,N/C*%
X182610000Y-77770000D03*
%TO.P,U2,3*%
%TO.N,Net-(U2-Pad3)*%
X187690000Y-77770000D03*
%TO.P,U2,5*%
%TO.N,N/C*%
X177530000Y-77770000D03*
%TD*%
D12*
%TO.P,OLED1,3*%
%TO.N,GND*%
X146780000Y-50560000D03*
%TO.P,OLED1,4*%
%TO.N,RST*%
X149320000Y-50560000D03*
%TO.P,OLED1,5*%
%TO.N,SCK*%
X151860000Y-50560000D03*
%TO.P,OLED1,6*%
%TO.N,SI*%
X154400000Y-50560000D03*
%TO.P,OLED1,7*%
%TO.N,CS*%
X156940000Y-50560000D03*
%TO.P,OLED1,8*%
%TO.N,DC*%
X159480000Y-50560000D03*
D13*
%TO.P,OLED1,1*%
%TO.N,+3V3*%
X141700000Y-50560000D03*
D12*
%TO.P,OLED1,2*%
%TO.N,+5V*%
X144240000Y-50560000D03*
%TD*%
D14*
%TO.P,U1,EN*%
%TO.N,N/C*%
X167700000Y-12230000D03*
%TO.P,U1,13*%
X167700000Y-14770000D03*
%TO.P,U1,10*%
%TO.N,SERVO*%
X167700000Y-22390000D03*
%TO.P,U1,3*%
%TO.N,SCL*%
X167700000Y-32550000D03*
D15*
%TO.P,U1,Bat+*%
%TO.N,N/C*%
X167700000Y-9690000D03*
D14*
%TO.P,U1,5*%
%TO.N,RST*%
X167700000Y-30010000D03*
%TO.P,U1,12*%
%TO.N,N/C*%
X167700000Y-17310000D03*
%TO.P,U1,6*%
%TO.N,Net-(BOTO2-Pad1)*%
X167700000Y-27470000D03*
%TO.P,U1,2*%
%TO.N,SDA*%
X167700000Y-35090000D03*
%TO.P,U1,11*%
%TO.N,N/C*%
X167700000Y-19850000D03*
%TO.P,U1,9*%
%TO.N,Net-(BOTO1-Pad1)*%
X167700000Y-24930000D03*
D15*
%TO.P,U1,GND*%
%TO.N,GND*%
X145700000Y-4570000D03*
D14*
%TO.P,U1,18*%
%TO.N,Net-(NiHALL1-Pad1)*%
X145700000Y-7110000D03*
%TO.P,U1,19*%
%TO.N,Net-(U1-Pad19)*%
X145700000Y-9650000D03*
%TO.P,U1,20*%
%TO.N,Net-(U1-Pad20)*%
X145700000Y-12190000D03*
%TO.P,U1,23*%
%TO.N,CS*%
X145700000Y-19810000D03*
%TO.P,U1,17*%
%TO.N,N/C*%
X145700000Y-27430000D03*
%TO.P,U1,0*%
X145700000Y-29970000D03*
%TO.P,U1,RST*%
X145700000Y3050000D03*
%TO.P,U1,21*%
%TO.N,Net-(U1-Pad21)*%
X145700000Y-14730000D03*
%TO.P,U1,16*%
%TO.N,SI*%
X145700000Y-24890000D03*
%TO.P,U1,14*%
%TO.N,Net-(U1-Pad14)*%
X145700000Y-35050000D03*
%TO.P,U1,3V3*%
%TO.N,N/C*%
X145700000Y510000D03*
%TO.P,U1,1*%
%TO.N,Net-(U1-Pad1)*%
X145700000Y-32510000D03*
%TO.P,U1,22*%
%TO.N,DC*%
X145700000Y-17270000D03*
%TO.P,U1,15*%
%TO.N,SCK*%
X145700000Y-22350000D03*
%TO.P,U1,AREF*%
%TO.N,N/C*%
X145700000Y-2030000D03*
%TD*%
D11*
%TO.P,NiHALL1,1*%
%TO.N,Net-(NiHALL1-Pad1)*%
X139000000Y-7500000D03*
D10*
%TO.P,NiHALL1,2*%
%TO.N,GND*%
X139000000Y-10040000D03*
%TO.P,NiHALL1,3*%
%TO.N,+5V*%
X139000000Y-12580000D03*
%TD*%
%TO.P,M1,3*%
%TO.N,GND*%
X175000000Y-20830000D03*
%TO.P,M1,2*%
%TO.N,+5V*%
X175000000Y-18290000D03*
D11*
%TO.P,M1,1*%
%TO.N,SERVO*%
X175000000Y-15750000D03*
%TD*%
D10*
%TO.P,BOTO2,3*%
%TO.N,GND*%
X174750000Y-9080000D03*
%TO.P,BOTO2,2*%
%TO.N,+3V3*%
X174750000Y-6540000D03*
D11*
%TO.P,BOTO2,1*%
%TO.N,Net-(BOTO2-Pad1)*%
X174750000Y-4000000D03*
%TD*%
D10*
%TO.P,BOTO1,3*%
%TO.N,GND*%
X180250000Y-9080000D03*
%TO.P,BOTO1,2*%
%TO.N,+3V3*%
X180250000Y-6540000D03*
D11*
%TO.P,BOTO1,1*%
%TO.N,Net-(BOTO1-Pad1)*%
X180250000Y-4000000D03*
%TD*%
D16*
%TO.N,GND*%
X140750000Y-41190700D02*
X146780000Y-47220700D01*
X146780000Y-47220700D02*
X146780000Y-50560000D01*
X142212000Y-10040000D02*
X142212000Y-15787600D01*
X142212000Y-15787600D02*
X141250000Y-16750000D01*
X141250000Y-16750000D02*
X140750000Y-17250000D01*
X140750000Y-17250000D02*
X140750000Y-41190700D01*
X175000000Y-20830000D02*
X178420000Y-20830000D01*
X178420000Y-20830000D02*
X180250000Y-19000000D01*
X180250000Y-19000000D02*
X180250000Y-9080000D01*
X174750000Y-9080000D02*
X180250000Y-9080000D01*
X174750000Y-9080000D02*
X171080000Y-9080000D01*
X171080000Y-9080000D02*
X169626000Y-7626400D01*
X169626000Y-7626400D02*
X149624000Y-7626400D01*
X142212000Y-10040000D02*
X143872000Y-8380000D01*
X143872000Y-8380000D02*
X148870000Y-8380000D01*
X148870000Y-8380000D02*
X149375000Y-7875000D01*
X149375000Y-7875000D02*
X149624000Y-7626400D01*
X145700000Y-4570000D02*
X146070000Y-4570000D01*
X146070000Y-4570000D02*
X149375000Y-7875000D01*
X149624000Y-7623600D02*
X149624000Y-7626400D01*
X139000000Y-10040000D02*
X142212000Y-10040000D01*
X165911200Y-31338800D02*
X167338800Y-31338800D01*
X164250000Y-53250000D02*
X164250000Y-33000000D01*
X161250000Y-56250000D02*
X164250000Y-53250000D01*
X164250000Y-33000000D02*
X165911200Y-31338800D01*
X150000000Y-56250000D02*
X161250000Y-56250000D01*
X146780000Y-53030000D02*
X150000000Y-56250000D01*
X146780000Y-50560000D02*
X146780000Y-53030000D01*
X167338800Y-31338800D02*
X166956200Y-31338800D01*
X179580000Y-41830000D02*
X180080000Y-41830000D01*
X169088800Y-31338800D02*
X179580000Y-41830000D01*
X167338800Y-31338800D02*
X169088800Y-31338800D01*
%TO.N,+3V3*%
X174750000Y-6540000D02*
X180250000Y-6540000D01*
X169620000Y-3369600D02*
X172790000Y-6540000D01*
X136789000Y-3369600D02*
X169620000Y-3369600D01*
X134954000Y-5204500D02*
X136789000Y-3369600D01*
X134954000Y-44204000D02*
X134954000Y-5204500D01*
X172790000Y-6540000D02*
X174750000Y-6540000D01*
X141310000Y-50560000D02*
X134954000Y-44204000D01*
X141700000Y-50560000D02*
X141310000Y-50560000D01*
%TO.N,Net-(BOTO1-Pad1)*%
X180250000Y-4000000D02*
X182000000Y-4000000D01*
X182000000Y-4000000D02*
X183500000Y-5500000D01*
X183500000Y-5500000D02*
X183500000Y-21860000D01*
X183500000Y-21860000D02*
X180430000Y-24930000D01*
X180430000Y-24930000D02*
X167700000Y-24930000D01*
%TO.N,Net-(BOTO2-Pad1)*%
X174750000Y-4000000D02*
X174750000Y-1500000D01*
X174750000Y-1500000D02*
X176000000Y-250000D01*
X176000000Y-250000D02*
X182750000Y-250000D01*
X182750000Y-250000D02*
X185750000Y-3250000D01*
X185750000Y-3250000D02*
X185750000Y-23500000D01*
X185750000Y-23500000D02*
X181780000Y-27470000D01*
X181780000Y-27470000D02*
X167700000Y-27470000D01*
%TO.N,+5V*%
X138000000Y-41500000D02*
X144240000Y-47740000D01*
X144240000Y-47740000D02*
X144240000Y-50560000D01*
X139000000Y-12580000D02*
X138920000Y-12580000D01*
X138920000Y-12580000D02*
X138000000Y-13500000D01*
X138000000Y-13500000D02*
X138000000Y-41500000D01*
X165740000Y-28740000D02*
X165250000Y-28250000D01*
X165250000Y-28250000D02*
X165250000Y-24500000D01*
X165250000Y-24500000D02*
X166090000Y-23660000D01*
X166090000Y-23660000D02*
X171160000Y-23660000D01*
X171160000Y-23660000D02*
X172250000Y-22570000D01*
X172250000Y-22570000D02*
X172250000Y-22500000D01*
X172250000Y-22500000D02*
X172500000Y-22250000D01*
X172500000Y-22250000D02*
X172500000Y-19250000D01*
X172500000Y-19250000D02*
X173460000Y-18290000D01*
X173460000Y-18290000D02*
X175000000Y-18290000D01*
X191250000Y-40250000D02*
X190125000Y-39125000D01*
X191250000Y-44000000D02*
X191250000Y-40250000D01*
X176500000Y-58750000D02*
X181000000Y-54250000D01*
X147000000Y-58750000D02*
X176500000Y-58750000D01*
X144240000Y-55990000D02*
X147000000Y-58750000D01*
X144240000Y-50560000D02*
X144240000Y-55990000D01*
X181000000Y-54250000D02*
X191250000Y-44000000D01*
X179250000Y-56000000D02*
X181000000Y-54250000D01*
X170010000Y-28740000D02*
X165740000Y-28740000D01*
X170490000Y-28740000D02*
X170010000Y-28740000D01*
X182620000Y-40120000D02*
X182620000Y-40370000D01*
X182620000Y-40370000D02*
X182620000Y-41830000D01*
X170010000Y-28740000D02*
X171240000Y-28740000D01*
X181625000Y-39125000D02*
X181375000Y-38875000D01*
X190125000Y-39125000D02*
X181625000Y-39125000D01*
X181375000Y-38875000D02*
X182620000Y-40120000D01*
X171240000Y-28740000D02*
X181375000Y-38875000D01*
%TO.N,SERVO*%
X167700000Y-22390000D02*
X168610000Y-22390000D01*
X168610000Y-22390000D02*
X170250000Y-20750000D01*
X170250000Y-20750000D02*
X170250000Y-16750000D01*
X170250000Y-16750000D02*
X171250000Y-15750000D01*
X171250000Y-15750000D02*
X175000000Y-15750000D01*
%TO.N,Net-(NiHALL1-Pad1)*%
X139000000Y-7500000D02*
X139000000Y-7250000D01*
X139000000Y-7250000D02*
X140250000Y-6000000D01*
X140250000Y-6000000D02*
X143500000Y-6000000D01*
X143500000Y-6000000D02*
X144610000Y-7110000D01*
X144610000Y-7110000D02*
X145700000Y-7110000D01*
X139390000Y-7110000D02*
X139000000Y-7500000D01*
%TO.N,RST*%
X149320000Y-51820000D02*
X149320000Y-50560000D01*
X150750000Y-53250000D02*
X149320000Y-51820000D01*
X162000000Y-51500000D02*
X160250000Y-53250000D01*
X164240000Y-30010000D02*
X162000000Y-32250000D01*
X167700000Y-30010000D02*
X164240000Y-30010000D01*
X162000000Y-32250000D02*
X162000000Y-51500000D01*
X160250000Y-53250000D02*
X150750000Y-53250000D01*
%TO.N,SCK*%
X142750000Y-38700000D02*
X151860000Y-47810000D01*
X151860000Y-47810000D02*
X151860000Y-50560000D01*
X145700000Y-22350000D02*
X144650000Y-22350000D01*
X144650000Y-22350000D02*
X142750000Y-24250000D01*
X142750000Y-24250000D02*
X142750000Y-38700000D01*
%TO.N,SI*%
X151250000Y-41500000D02*
X154400000Y-44650000D01*
X154400000Y-44650000D02*
X154400000Y-50560000D01*
X146390000Y-24890000D02*
X149640000Y-24890000D01*
X149640000Y-24890000D02*
X151250000Y-26500000D01*
X151250000Y-26500000D02*
X151250000Y-41500000D01*
X145700000Y-24890000D02*
X146390000Y-24890000D01*
X145700000Y-24890000D02*
X146390000Y-24890000D01*
%TO.N,CS*%
X145700000Y-19810000D02*
X154810000Y-19810000D01*
X156000000Y-43000000D02*
X156940000Y-43940000D01*
X156000000Y-21000000D02*
X156000000Y-43000000D01*
X156940000Y-43940000D02*
X156940000Y-50560000D01*
X154810000Y-19810000D02*
X156000000Y-21000000D01*
%TO.N,DC*%
X159750000Y-50290000D02*
X159480000Y-50560000D01*
X145700000Y-17270000D02*
X157020000Y-17270000D01*
X158750000Y-42250000D02*
X159750000Y-43250000D01*
X158750000Y-19000000D02*
X158750000Y-42250000D01*
X159750000Y-43250000D02*
X159750000Y-50290000D01*
X157020000Y-17270000D02*
X158750000Y-19000000D01*
%TO.N,SCL*%
X167700000Y-32550000D02*
X167200000Y-32550000D01*
X167200000Y-32550000D02*
X165750000Y-34000000D01*
X165750000Y-34000000D02*
X165750000Y-43750000D01*
X165750000Y-43750000D02*
X168500000Y-46500000D01*
X168500000Y-46500000D02*
X185250000Y-46500000D01*
X187700000Y-44050000D02*
X187700000Y-41830000D01*
X185250000Y-46500000D02*
X187700000Y-44050000D01*
%TO.N,SDA*%
X167700000Y-35090000D02*
X167700000Y-36290300D01*
X175909700Y-44500000D02*
X174204850Y-42795150D01*
X183750000Y-44500000D02*
X175909700Y-44500000D01*
X185160000Y-43090000D02*
X183750000Y-44500000D01*
X185160000Y-41830000D02*
X185160000Y-43090000D01*
X174204850Y-42795150D02*
X167700000Y-36290300D01*
X174581100Y-43171400D02*
X174204850Y-42795150D01*
%TD*%
D17*
%TO.N,GND*%
X144065000Y-4284250D02*
X144223750Y-4443000D01*
X145573000Y-4443000D01*
X145573000Y-4423000D01*
X145827000Y-4423000D01*
X145827000Y-4443000D01*
X147176250Y-4443000D01*
X147335000Y-4284250D01*
X147335196Y-4254600D01*
X169253389Y-4254600D01*
X172133449Y-7135023D01*
X172161183Y-7168817D01*
X172232622Y-7227446D01*
X172295894Y-7279379D01*
X172295917Y-7279391D01*
X172295941Y-7279411D01*
X172375962Y-7322183D01*
X172449634Y-7361567D01*
X172449661Y-7361575D01*
X172449687Y-7361589D01*
X172534755Y-7387395D01*
X172616455Y-7412184D01*
X172616483Y-7412187D01*
X172616510Y-7412195D01*
X172712908Y-7421689D01*
X172789944Y-7429281D01*
X172833441Y-7425000D01*
X173555344Y-7425000D01*
X173596525Y-7486632D01*
X173803368Y-7693475D01*
X173985534Y-7815195D01*
X173868645Y-7884822D01*
X173652412Y-8079731D01*
X173478359Y-8313080D01*
X173353175Y-8575901D01*
X173308524Y-8723110D01*
X173429845Y-8953000D01*
X174623000Y-8953000D01*
X174623000Y-8933000D01*
X174877000Y-8933000D01*
X174877000Y-8953000D01*
X176070155Y-8953000D01*
X176191476Y-8723110D01*
X176146825Y-8575901D01*
X176021641Y-8313080D01*
X175847588Y-8079731D01*
X175631355Y-7884822D01*
X175514466Y-7815195D01*
X175696632Y-7693475D01*
X175903475Y-7486632D01*
X175944656Y-7425000D01*
X179055344Y-7425000D01*
X179096525Y-7486632D01*
X179303368Y-7693475D01*
X179485534Y-7815195D01*
X179368645Y-7884822D01*
X179152412Y-8079731D01*
X178978359Y-8313080D01*
X178853175Y-8575901D01*
X178808524Y-8723110D01*
X178929845Y-8953000D01*
X180123000Y-8953000D01*
X180123000Y-8933000D01*
X180377000Y-8933000D01*
X180377000Y-8953000D01*
X181570155Y-8953000D01*
X181691476Y-8723110D01*
X181646825Y-8575901D01*
X181521641Y-8313080D01*
X181347588Y-8079731D01*
X181131355Y-7884822D01*
X181014466Y-7815195D01*
X181196632Y-7693475D01*
X181403475Y-7486632D01*
X181565990Y-7243411D01*
X181677932Y-6973158D01*
X181735000Y-6686260D01*
X181735000Y-6393740D01*
X181677932Y-6106842D01*
X181565990Y-5836589D01*
X181403475Y-5593368D01*
X181271620Y-5461513D01*
X181344180Y-5439502D01*
X181454494Y-5380537D01*
X181551185Y-5301185D01*
X181630537Y-5204494D01*
X181689502Y-5094180D01*
X181725135Y-4976713D01*
X182615000Y-5866579D01*
X182615001Y-21493420D01*
X180063422Y-24045000D01*
X172026578Y-24045000D01*
X172845050Y-23226529D01*
X172878817Y-23198817D01*
X172908058Y-23163188D01*
X172989411Y-23064059D01*
X173034973Y-22978817D01*
X173048996Y-22952582D01*
X173095045Y-22906533D01*
X173128817Y-22878817D01*
X173239411Y-22744059D01*
X173321589Y-22590313D01*
X173372195Y-22423490D01*
X173385000Y-22293477D01*
X173385000Y-22293467D01*
X173389281Y-22250001D01*
X173385000Y-22206535D01*
X173385000Y-21186890D01*
X173558524Y-21186890D01*
X173603175Y-21334099D01*
X173728359Y-21596920D01*
X173902412Y-21830269D01*
X174118645Y-22025178D01*
X174368748Y-22174157D01*
X174643109Y-22271481D01*
X174873000Y-22150814D01*
X174873000Y-20957000D01*
X175127000Y-20957000D01*
X175127000Y-22150814D01*
X175356891Y-22271481D01*
X175631252Y-22174157D01*
X175881355Y-22025178D01*
X176097588Y-21830269D01*
X176271641Y-21596920D01*
X176396825Y-21334099D01*
X176441476Y-21186890D01*
X176320155Y-20957000D01*
X175127000Y-20957000D01*
X174873000Y-20957000D01*
X173679845Y-20957000D01*
X173558524Y-21186890D01*
X173385000Y-21186890D01*
X173385000Y-19616578D01*
X173813849Y-19187729D01*
X173846525Y-19236632D01*
X174053368Y-19443475D01*
X174235534Y-19565195D01*
X174118645Y-19634822D01*
X173902412Y-19829731D01*
X173728359Y-20063080D01*
X173603175Y-20325901D01*
X173558524Y-20473110D01*
X173679845Y-20703000D01*
X174873000Y-20703000D01*
X174873000Y-20683000D01*
X175127000Y-20683000D01*
X175127000Y-20703000D01*
X176320155Y-20703000D01*
X176441476Y-20473110D01*
X176396825Y-20325901D01*
X176271641Y-20063080D01*
X176097588Y-19829731D01*
X175881355Y-19634822D01*
X175764466Y-19565195D01*
X175946632Y-19443475D01*
X176153475Y-19236632D01*
X176315990Y-18993411D01*
X176427932Y-18723158D01*
X176485000Y-18436260D01*
X176485000Y-18143740D01*
X176427932Y-17856842D01*
X176315990Y-17586589D01*
X176153475Y-17343368D01*
X176021620Y-17211513D01*
X176094180Y-17189502D01*
X176204494Y-17130537D01*
X176301185Y-17051185D01*
X176380537Y-16954494D01*
X176439502Y-16844180D01*
X176475812Y-16724482D01*
X176488072Y-16600000D01*
X176488072Y-14900000D01*
X176475812Y-14775518D01*
X176439502Y-14655820D01*
X176380537Y-14545506D01*
X176301185Y-14448815D01*
X176204494Y-14369463D01*
X176094180Y-14310498D01*
X175974482Y-14274188D01*
X175850000Y-14261928D01*
X174150000Y-14261928D01*
X174025518Y-14274188D01*
X173905820Y-14310498D01*
X173795506Y-14369463D01*
X173698815Y-14448815D01*
X173619463Y-14545506D01*
X173560498Y-14655820D01*
X173524188Y-14775518D01*
X173515375Y-14865000D01*
X171293469Y-14865000D01*
X171250000Y-14860719D01*
X171206531Y-14865000D01*
X171206523Y-14865000D01*
X171076510Y-14877805D01*
X170909686Y-14928411D01*
X170755941Y-15010589D01*
X170654953Y-15093468D01*
X170654951Y-15093470D01*
X170621183Y-15121183D01*
X170593470Y-15154951D01*
X169654951Y-16093471D01*
X169621184Y-16121183D01*
X169593471Y-16154951D01*
X169593468Y-16154954D01*
X169510590Y-16255941D01*
X169428412Y-16409687D01*
X169377805Y-16576510D01*
X169360719Y-16750000D01*
X169365001Y-16793479D01*
X169365000Y-20383421D01*
X169024427Y-20723994D01*
X169107157Y-20623188D01*
X169235764Y-20382581D01*
X169314960Y-20121507D01*
X169341701Y-19850000D01*
X169314960Y-19578493D01*
X169235764Y-19317419D01*
X169107157Y-19076812D01*
X168934081Y-18865919D01*
X168723188Y-18692843D01*
X168512073Y-18580000D01*
X168723188Y-18467157D01*
X168934081Y-18294081D01*
X169107157Y-18083188D01*
X169235764Y-17842581D01*
X169314960Y-17581507D01*
X169341701Y-17310000D01*
X169314960Y-17038493D01*
X169235764Y-16777419D01*
X169107157Y-16536812D01*
X168934081Y-16325919D01*
X168723188Y-16152843D01*
X168512073Y-16040000D01*
X168723188Y-15927157D01*
X168934081Y-15754081D01*
X169107157Y-15543188D01*
X169235764Y-15302581D01*
X169314960Y-15041507D01*
X169341701Y-14770000D01*
X169314960Y-14498493D01*
X169235764Y-14237419D01*
X169107157Y-13996812D01*
X168934081Y-13785919D01*
X168723188Y-13612843D01*
X168512073Y-13500000D01*
X168723188Y-13387157D01*
X168934081Y-13214081D01*
X169107157Y-13003188D01*
X169235764Y-12762581D01*
X169314960Y-12501507D01*
X169341701Y-12230000D01*
X169314960Y-11958493D01*
X169235764Y-11697419D01*
X169107157Y-11456812D01*
X168934081Y-11245919D01*
X168726392Y-11075473D01*
X168824482Y-11065812D01*
X168944180Y-11029502D01*
X169054494Y-10970537D01*
X169151185Y-10891185D01*
X169230537Y-10794494D01*
X169289502Y-10684180D01*
X169325812Y-10564482D01*
X169338072Y-10440000D01*
X169338072Y-9436890D01*
X173308524Y-9436890D01*
X173353175Y-9584099D01*
X173478359Y-9846920D01*
X173652412Y-10080269D01*
X173868645Y-10275178D01*
X174118748Y-10424157D01*
X174393109Y-10521481D01*
X174623000Y-10400814D01*
X174623000Y-9207000D01*
X174877000Y-9207000D01*
X174877000Y-10400814D01*
X175106891Y-10521481D01*
X175381252Y-10424157D01*
X175631355Y-10275178D01*
X175847588Y-10080269D01*
X176021641Y-9846920D01*
X176146825Y-9584099D01*
X176191476Y-9436890D01*
X178808524Y-9436890D01*
X178853175Y-9584099D01*
X178978359Y-9846920D01*
X179152412Y-10080269D01*
X179368645Y-10275178D01*
X179618748Y-10424157D01*
X179893109Y-10521481D01*
X180123000Y-10400814D01*
X180123000Y-9207000D01*
X180377000Y-9207000D01*
X180377000Y-10400814D01*
X180606891Y-10521481D01*
X180881252Y-10424157D01*
X181131355Y-10275178D01*
X181347588Y-10080269D01*
X181521641Y-9846920D01*
X181646825Y-9584099D01*
X181691476Y-9436890D01*
X181570155Y-9207000D01*
X180377000Y-9207000D01*
X180123000Y-9207000D01*
X178929845Y-9207000D01*
X178808524Y-9436890D01*
X176191476Y-9436890D01*
X176070155Y-9207000D01*
X174877000Y-9207000D01*
X174623000Y-9207000D01*
X173429845Y-9207000D01*
X173308524Y-9436890D01*
X169338072Y-9436890D01*
X169338072Y-8940000D01*
X169325812Y-8815518D01*
X169289502Y-8695820D01*
X169230537Y-8585506D01*
X169151185Y-8488815D01*
X169054494Y-8409463D01*
X168944180Y-8350498D01*
X168824482Y-8314188D01*
X168700000Y-8301928D01*
X166700000Y-8301928D01*
X166575518Y-8314188D01*
X166455820Y-8350498D01*
X166345506Y-8409463D01*
X166248815Y-8488815D01*
X166169463Y-8585506D01*
X166110498Y-8695820D01*
X166074188Y-8815518D01*
X166061928Y-8940000D01*
X166061928Y-10440000D01*
X166074188Y-10564482D01*
X166110498Y-10684180D01*
X166169463Y-10794494D01*
X166248815Y-10891185D01*
X166345506Y-10970537D01*
X166455820Y-11029502D01*
X166575518Y-11065812D01*
X166673608Y-11075473D01*
X166465919Y-11245919D01*
X166292843Y-11456812D01*
X166164236Y-11697419D01*
X166085040Y-11958493D01*
X166058299Y-12230000D01*
X166085040Y-12501507D01*
X166164236Y-12762581D01*
X166292843Y-13003188D01*
X166465919Y-13214081D01*
X166676812Y-13387157D01*
X166887927Y-13500000D01*
X166676812Y-13612843D01*
X166465919Y-13785919D01*
X166292843Y-13996812D01*
X166164236Y-14237419D01*
X166085040Y-14498493D01*
X166058299Y-14770000D01*
X166085040Y-15041507D01*
X166164236Y-15302581D01*
X166292843Y-15543188D01*
X166465919Y-15754081D01*
X166676812Y-15927157D01*
X166887927Y-16040000D01*
X166676812Y-16152843D01*
X166465919Y-16325919D01*
X166292843Y-16536812D01*
X166164236Y-16777419D01*
X166085040Y-17038493D01*
X166058299Y-17310000D01*
X166085040Y-17581507D01*
X166164236Y-17842581D01*
X166292843Y-18083188D01*
X166465919Y-18294081D01*
X166676812Y-18467157D01*
X166887927Y-18580000D01*
X166676812Y-18692843D01*
X166465919Y-18865919D01*
X166292843Y-19076812D01*
X166164236Y-19317419D01*
X166085040Y-19578493D01*
X166058299Y-19850000D01*
X166085040Y-20121507D01*
X166164236Y-20382581D01*
X166292843Y-20623188D01*
X166465919Y-20834081D01*
X166676812Y-21007157D01*
X166887927Y-21120000D01*
X166676812Y-21232843D01*
X166465919Y-21405919D01*
X166292843Y-21616812D01*
X166164236Y-21857419D01*
X166085040Y-22118493D01*
X166058299Y-22390000D01*
X166085040Y-22661507D01*
X166119037Y-22773579D01*
X166089999Y-22770719D01*
X166046533Y-22775000D01*
X166046523Y-22775000D01*
X165916510Y-22787805D01*
X165749687Y-22838411D01*
X165595941Y-22920589D01*
X165595939Y-22920590D01*
X165595940Y-22920590D01*
X165494953Y-23003468D01*
X165494951Y-23003470D01*
X165461183Y-23031183D01*
X165433470Y-23064951D01*
X164654951Y-23843471D01*
X164621184Y-23871183D01*
X164593471Y-23904951D01*
X164593468Y-23904954D01*
X164510590Y-24005941D01*
X164428412Y-24159687D01*
X164377805Y-24326510D01*
X164360719Y-24500000D01*
X164365001Y-24543479D01*
X164365000Y-28206531D01*
X164360719Y-28250000D01*
X164365000Y-28293469D01*
X164365000Y-28293476D01*
X164377805Y-28423489D01*
X164428411Y-28590312D01*
X164510589Y-28744058D01*
X164621183Y-28878817D01*
X164654956Y-28906534D01*
X164873422Y-29125000D01*
X164283465Y-29125000D01*
X164239999Y-29120719D01*
X164196533Y-29125000D01*
X164196523Y-29125000D01*
X164066510Y-29137805D01*
X163899687Y-29188411D01*
X163745941Y-29270589D01*
X163745939Y-29270590D01*
X163745940Y-29270590D01*
X163644953Y-29353468D01*
X163644951Y-29353470D01*
X163611183Y-29381183D01*
X163583470Y-29414951D01*
X161404956Y-31593466D01*
X161371183Y-31621183D01*
X161260589Y-31755942D01*
X161178411Y-31909688D01*
X161127805Y-32076511D01*
X161115000Y-32206524D01*
X161115000Y-32206531D01*
X161110719Y-32250000D01*
X161115000Y-32293469D01*
X161115001Y-51133420D01*
X160508660Y-51739761D01*
X160637157Y-51583188D01*
X160765764Y-51342580D01*
X160844960Y-51081506D01*
X160865000Y-50878036D01*
X160865000Y-50241963D01*
X160844960Y-50038493D01*
X160765764Y-49777419D01*
X160637157Y-49536812D01*
X160635000Y-49534184D01*
X160635000Y-43293469D01*
X160639281Y-43250000D01*
X160635000Y-43206531D01*
X160635000Y-43206523D01*
X160622195Y-43076510D01*
X160598352Y-42997910D01*
X160571589Y-42909686D01*
X160489411Y-42755941D01*
X160406532Y-42654953D01*
X160406530Y-42654951D01*
X160378817Y-42621183D01*
X160345050Y-42593471D01*
X159635000Y-41883422D01*
X159635000Y-19043465D01*
X159639281Y-18999999D01*
X159635000Y-18956533D01*
X159635000Y-18956523D01*
X159622195Y-18826510D01*
X159571589Y-18659687D01*
X159489411Y-18505941D01*
X159454572Y-18463490D01*
X159406532Y-18404953D01*
X159406530Y-18404951D01*
X159378817Y-18371183D01*
X159345050Y-18343471D01*
X157676534Y-16674956D01*
X157648817Y-16641183D01*
X157514059Y-16530589D01*
X157360313Y-16448411D01*
X157193490Y-16397805D01*
X157063477Y-16385000D01*
X157063469Y-16385000D01*
X157020000Y-16380719D01*
X156976531Y-16385000D01*
X147015395Y-16385000D01*
X146934081Y-16285919D01*
X146723188Y-16112843D01*
X146512073Y-16000000D01*
X146723188Y-15887157D01*
X146934081Y-15714081D01*
X147107157Y-15503188D01*
X147235764Y-15262581D01*
X147314960Y-15001507D01*
X147341701Y-14730000D01*
X147314960Y-14458493D01*
X147235764Y-14197419D01*
X147107157Y-13956812D01*
X146934081Y-13745919D01*
X146723188Y-13572843D01*
X146512073Y-13460000D01*
X146723188Y-13347157D01*
X146934081Y-13174081D01*
X147107157Y-12963188D01*
X147235764Y-12722581D01*
X147314960Y-12461507D01*
X147341701Y-12190000D01*
X147314960Y-11918493D01*
X147235764Y-11657419D01*
X147107157Y-11416812D01*
X146934081Y-11205919D01*
X146723188Y-11032843D01*
X146512073Y-10920000D01*
X146723188Y-10807157D01*
X146934081Y-10634081D01*
X147107157Y-10423188D01*
X147235764Y-10182581D01*
X147314960Y-9921507D01*
X147341701Y-9650000D01*
X147314960Y-9378493D01*
X147235764Y-9117419D01*
X147107157Y-8876812D01*
X146934081Y-8665919D01*
X146723188Y-8492843D01*
X146512073Y-8380000D01*
X146723188Y-8267157D01*
X146934081Y-8094081D01*
X147107157Y-7883188D01*
X147235764Y-7642581D01*
X147314960Y-7381507D01*
X147341701Y-7110000D01*
X147314960Y-6838493D01*
X147235764Y-6577419D01*
X147107157Y-6336812D01*
X146934081Y-6125919D01*
X146726392Y-5955473D01*
X146824482Y-5945812D01*
X146944180Y-5909502D01*
X147054494Y-5850537D01*
X147151185Y-5771185D01*
X147230537Y-5674494D01*
X147289502Y-5564180D01*
X147325812Y-5444482D01*
X147338072Y-5320000D01*
X147335000Y-4855750D01*
X147176250Y-4697000D01*
X145827000Y-4697000D01*
X145827000Y-4717000D01*
X145573000Y-4717000D01*
X145573000Y-4697000D01*
X144223750Y-4697000D01*
X144065000Y-4855750D01*
X144061952Y-5316308D01*
X143994059Y-5260589D01*
X143840313Y-5178411D01*
X143673490Y-5127805D01*
X143543477Y-5115000D01*
X143543469Y-5115000D01*
X143500000Y-5110719D01*
X143456531Y-5115000D01*
X140293469Y-5115000D01*
X140250000Y-5110719D01*
X140206531Y-5115000D01*
X140206523Y-5115000D01*
X140091306Y-5126348D01*
X140076509Y-5127805D01*
X140025903Y-5143157D01*
X139909687Y-5178411D01*
X139755941Y-5260589D01*
X139755939Y-5260590D01*
X139755940Y-5260590D01*
X139654953Y-5343468D01*
X139654951Y-5343470D01*
X139621183Y-5371183D01*
X139593470Y-5404951D01*
X138986494Y-6011928D01*
X138150000Y-6011928D01*
X138025518Y-6024188D01*
X137905820Y-6060498D01*
X137795506Y-6119463D01*
X137698815Y-6198815D01*
X137619463Y-6295506D01*
X137560498Y-6405820D01*
X137524188Y-6525518D01*
X137511928Y-6650000D01*
X137511928Y-8350000D01*
X137524188Y-8474482D01*
X137560498Y-8594180D01*
X137619463Y-8704494D01*
X137698815Y-8801185D01*
X137795506Y-8880537D01*
X137905820Y-8939502D01*
X137986466Y-8963966D01*
X137902412Y-9039731D01*
X137728359Y-9273080D01*
X137603175Y-9535901D01*
X137558524Y-9683110D01*
X137679845Y-9913000D01*
X138873000Y-9913000D01*
X138873000Y-9893000D01*
X139127000Y-9893000D01*
X139127000Y-9913000D01*
X140320155Y-9913000D01*
X140441476Y-9683110D01*
X140396825Y-9535901D01*
X140271641Y-9273080D01*
X140097588Y-9039731D01*
X140013534Y-8963966D01*
X140094180Y-8939502D01*
X140204494Y-8880537D01*
X140301185Y-8801185D01*
X140380537Y-8704494D01*
X140439502Y-8594180D01*
X140475812Y-8474482D01*
X140488072Y-8350000D01*
X140488072Y-7013507D01*
X140616579Y-6885000D01*
X143133422Y-6885000D01*
X143953470Y-7705049D01*
X143981183Y-7738817D01*
X144014951Y-7766530D01*
X144014953Y-7766532D01*
X144086452Y-7825210D01*
X144115941Y-7849411D01*
X144269687Y-7931589D01*
X144353407Y-7956986D01*
X144465919Y-8094081D01*
X144676812Y-8267157D01*
X144887927Y-8380000D01*
X144676812Y-8492843D01*
X144465919Y-8665919D01*
X144292843Y-8876812D01*
X144164236Y-9117419D01*
X144085040Y-9378493D01*
X144058299Y-9650000D01*
X144085040Y-9921507D01*
X144164236Y-10182581D01*
X144292843Y-10423188D01*
X144465919Y-10634081D01*
X144676812Y-10807157D01*
X144887927Y-10920000D01*
X144676812Y-11032843D01*
X144465919Y-11205919D01*
X144292843Y-11416812D01*
X144164236Y-11657419D01*
X144085040Y-11918493D01*
X144058299Y-12190000D01*
X144085040Y-12461507D01*
X144164236Y-12722581D01*
X144292843Y-12963188D01*
X144465919Y-13174081D01*
X144676812Y-13347157D01*
X144887927Y-13460000D01*
X144676812Y-13572843D01*
X144465919Y-13745919D01*
X144292843Y-13956812D01*
X144164236Y-14197419D01*
X144085040Y-14458493D01*
X144058299Y-14730000D01*
X144085040Y-15001507D01*
X144164236Y-15262581D01*
X144292843Y-15503188D01*
X144465919Y-15714081D01*
X144676812Y-15887157D01*
X144887927Y-16000000D01*
X144676812Y-16112843D01*
X144465919Y-16285919D01*
X144292843Y-16496812D01*
X144164236Y-16737419D01*
X144085040Y-16998493D01*
X144058299Y-17270000D01*
X144085040Y-17541507D01*
X144164236Y-17802581D01*
X144292843Y-18043188D01*
X144465919Y-18254081D01*
X144676812Y-18427157D01*
X144887927Y-18540000D01*
X144676812Y-18652843D01*
X144465919Y-18825919D01*
X144292843Y-19036812D01*
X144164236Y-19277419D01*
X144085040Y-19538493D01*
X144058299Y-19810000D01*
X144085040Y-20081507D01*
X144164236Y-20342581D01*
X144292843Y-20583188D01*
X144465919Y-20794081D01*
X144676812Y-20967157D01*
X144887927Y-21080000D01*
X144676812Y-21192843D01*
X144465919Y-21365919D01*
X144340148Y-21519171D01*
X144309687Y-21528411D01*
X144228906Y-21571589D01*
X144155941Y-21610589D01*
X144054953Y-21693468D01*
X144054951Y-21693470D01*
X144021183Y-21721183D01*
X143993470Y-21754951D01*
X142154956Y-23593466D01*
X142121183Y-23621183D01*
X142010589Y-23755942D01*
X141928411Y-23909688D01*
X141877805Y-24076511D01*
X141865000Y-24206524D01*
X141865000Y-24206531D01*
X141860719Y-24250000D01*
X141865000Y-24293469D01*
X141865001Y-38656521D01*
X141860719Y-38700000D01*
X141877805Y-38873490D01*
X141928412Y-39040313D01*
X142010590Y-39194059D01*
X142093468Y-39295046D01*
X142093471Y-39295049D01*
X142121184Y-39328817D01*
X142154952Y-39356530D01*
X150975000Y-48176579D01*
X150975001Y-49244605D01*
X150875919Y-49325920D01*
X150702843Y-49536813D01*
X150590000Y-49747927D01*
X150477157Y-49536812D01*
X150304080Y-49325919D01*
X150093187Y-49152843D01*
X149852580Y-49024236D01*
X149591506Y-48945040D01*
X149320000Y-48918299D01*
X149048493Y-48945040D01*
X148787419Y-49024236D01*
X148546812Y-49152843D01*
X148335919Y-49325920D01*
X148162843Y-49536813D01*
X148051550Y-49745029D01*
X148029968Y-49688276D01*
X147884658Y-49456366D01*
X147696897Y-49257260D01*
X147473900Y-49098610D01*
X147224236Y-48986513D01*
X147121185Y-48967682D01*
X146907000Y-49090344D01*
X146907000Y-50433000D01*
X146927000Y-50433000D01*
X146927000Y-50687000D01*
X146907000Y-50687000D01*
X146907000Y-52029656D01*
X147121185Y-52152318D01*
X147224236Y-52133487D01*
X147473900Y-52021390D01*
X147696897Y-51862740D01*
X147884658Y-51663634D01*
X148029968Y-51431724D01*
X148051549Y-51374972D01*
X148162843Y-51583188D01*
X148335920Y-51794081D01*
X148436277Y-51876442D01*
X148447805Y-51993489D01*
X148498411Y-52160312D01*
X148580589Y-52314058D01*
X148691183Y-52448817D01*
X148724956Y-52476534D01*
X150093470Y-53845049D01*
X150121183Y-53878817D01*
X150154951Y-53906530D01*
X150154953Y-53906532D01*
X150226452Y-53965210D01*
X150255941Y-53989411D01*
X150409687Y-54071589D01*
X150576510Y-54122195D01*
X150706523Y-54135000D01*
X150706533Y-54135000D01*
X150749999Y-54139281D01*
X150793465Y-54135000D01*
X160206531Y-54135000D01*
X160250000Y-54139281D01*
X160293469Y-54135000D01*
X160293477Y-54135000D01*
X160423490Y-54122195D01*
X160590313Y-54071589D01*
X160744059Y-53989411D01*
X160878817Y-53878817D01*
X160906534Y-53845044D01*
X162595049Y-52156530D01*
X162628817Y-52128817D01*
X162739411Y-51994059D01*
X162821589Y-51840313D01*
X162872195Y-51673490D01*
X162885000Y-51543477D01*
X162885000Y-51543469D01*
X162889281Y-51500000D01*
X162885000Y-51456531D01*
X162885000Y-32616578D01*
X164606579Y-30895000D01*
X166384605Y-30895000D01*
X166465919Y-30994081D01*
X166676812Y-31167157D01*
X166887927Y-31280000D01*
X166676812Y-31392843D01*
X166465919Y-31565919D01*
X166292843Y-31776812D01*
X166164236Y-32017419D01*
X166085040Y-32278493D01*
X166070303Y-32428118D01*
X165154956Y-33343466D01*
X165121183Y-33371183D01*
X165010589Y-33505942D01*
X164928411Y-33659688D01*
X164877805Y-33826511D01*
X164865000Y-33956524D01*
X164865000Y-33956531D01*
X164860719Y-34000000D01*
X164865000Y-34043469D01*
X164865001Y-43706521D01*
X164860719Y-43750000D01*
X164877805Y-43923490D01*
X164928412Y-44090313D01*
X165010590Y-44244059D01*
X165093468Y-44345046D01*
X165093471Y-44345049D01*
X165121184Y-44378817D01*
X165154951Y-44406529D01*
X167843470Y-47095049D01*
X167871183Y-47128817D01*
X167904951Y-47156530D01*
X167904953Y-47156532D01*
X167976139Y-47214953D01*
X168005941Y-47239411D01*
X168159687Y-47321589D01*
X168326510Y-47372195D01*
X168456523Y-47385000D01*
X168456533Y-47385000D01*
X168499999Y-47389281D01*
X168543465Y-47385000D01*
X185206531Y-47385000D01*
X185250000Y-47389281D01*
X185293469Y-47385000D01*
X185293477Y-47385000D01*
X185423490Y-47372195D01*
X185590313Y-47321589D01*
X185744059Y-47239411D01*
X185878817Y-47128817D01*
X185906534Y-47095044D01*
X188295050Y-44706529D01*
X188328817Y-44678817D01*
X188369852Y-44628817D01*
X188419092Y-44568817D01*
X188439411Y-44544059D01*
X188521589Y-44390313D01*
X188572195Y-44223490D01*
X188585000Y-44093477D01*
X188585000Y-44093467D01*
X188589281Y-44050001D01*
X188585000Y-44006535D01*
X188585000Y-43314625D01*
X188674482Y-43305812D01*
X188794180Y-43269502D01*
X188904494Y-43210537D01*
X189001185Y-43131185D01*
X189080537Y-43034494D01*
X189139502Y-42924180D01*
X189175812Y-42804482D01*
X189188072Y-42680000D01*
X189188072Y-40980000D01*
X189175812Y-40855518D01*
X189139502Y-40735820D01*
X189080537Y-40625506D01*
X189001185Y-40528815D01*
X188904494Y-40449463D01*
X188794180Y-40390498D01*
X188674482Y-40354188D01*
X188550000Y-40341928D01*
X186850000Y-40341928D01*
X186725518Y-40354188D01*
X186605820Y-40390498D01*
X186495506Y-40449463D01*
X186398815Y-40528815D01*
X186319463Y-40625506D01*
X186260498Y-40735820D01*
X186238487Y-40808380D01*
X186106632Y-40676525D01*
X185863411Y-40514010D01*
X185593158Y-40402068D01*
X185306260Y-40345000D01*
X185013740Y-40345000D01*
X184726842Y-40402068D01*
X184456589Y-40514010D01*
X184213368Y-40676525D01*
X184006525Y-40883368D01*
X183890000Y-41057760D01*
X183773475Y-40883368D01*
X183566632Y-40676525D01*
X183505000Y-40635344D01*
X183505000Y-40163469D01*
X183509281Y-40120000D01*
X183505000Y-40076531D01*
X183505000Y-40076523D01*
X183498448Y-40010000D01*
X189758422Y-40010000D01*
X190365001Y-40616580D01*
X190365000Y-43633421D01*
X180404959Y-53593463D01*
X180404953Y-53593468D01*
X176133422Y-57865000D01*
X147366579Y-57865000D01*
X145125000Y-55623422D01*
X145125000Y-51875395D01*
X145224081Y-51794081D01*
X145397157Y-51583188D01*
X145508451Y-51374971D01*
X145530032Y-51431724D01*
X145675342Y-51663634D01*
X145863103Y-51862740D01*
X146086100Y-52021390D01*
X146335764Y-52133487D01*
X146438815Y-52152318D01*
X146653000Y-52029656D01*
X146653000Y-50687000D01*
X146633000Y-50687000D01*
X146633000Y-50433000D01*
X146653000Y-50433000D01*
X146653000Y-49090344D01*
X146438815Y-48967682D01*
X146335764Y-48986513D01*
X146086100Y-49098610D01*
X145863103Y-49257260D01*
X145675342Y-49456366D01*
X145530032Y-49688276D01*
X145508451Y-49745028D01*
X145397157Y-49536812D01*
X145224080Y-49325919D01*
X145125000Y-49244606D01*
X145125000Y-47783469D01*
X145129281Y-47740000D01*
X145125000Y-47696531D01*
X145125000Y-47696523D01*
X145112195Y-47566510D01*
X145082823Y-47469686D01*
X145061589Y-47399686D01*
X144979411Y-47245941D01*
X144896532Y-47144953D01*
X144896530Y-47144951D01*
X144868817Y-47111183D01*
X144835051Y-47083472D01*
X138885000Y-41133422D01*
X138885000Y-14065000D01*
X139146260Y-14065000D01*
X139433158Y-14007932D01*
X139703411Y-13895990D01*
X139946632Y-13733475D01*
X140153475Y-13526632D01*
X140315990Y-13283411D01*
X140427932Y-13013158D01*
X140485000Y-12726260D01*
X140485000Y-12433740D01*
X140427932Y-12146842D01*
X140315990Y-11876589D01*
X140153475Y-11633368D01*
X139946632Y-11426525D01*
X139764466Y-11304805D01*
X139881355Y-11235178D01*
X140097588Y-11040269D01*
X140271641Y-10806920D01*
X140396825Y-10544099D01*
X140441476Y-10396890D01*
X140320155Y-10167000D01*
X139127000Y-10167000D01*
X139127000Y-10187000D01*
X138873000Y-10187000D01*
X138873000Y-10167000D01*
X137679845Y-10167000D01*
X137558524Y-10396890D01*
X137603175Y-10544099D01*
X137728359Y-10806920D01*
X137902412Y-11040269D01*
X138118645Y-11235178D01*
X138235534Y-11304805D01*
X138053368Y-11426525D01*
X137846525Y-11633368D01*
X137684010Y-11876589D01*
X137572068Y-12146842D01*
X137515000Y-12433740D01*
X137515000Y-12726260D01*
X137516188Y-12732234D01*
X137404956Y-12843466D01*
X137371183Y-12871183D01*
X137260589Y-13005942D01*
X137178411Y-13159688D01*
X137127805Y-13326511D01*
X137115000Y-13456524D01*
X137115000Y-13456531D01*
X137110719Y-13500000D01*
X137115000Y-13543469D01*
X137115001Y-41456521D01*
X137110719Y-41500000D01*
X137127805Y-41673490D01*
X137178412Y-41840313D01*
X137260590Y-41994059D01*
X137343468Y-42095046D01*
X137343471Y-42095049D01*
X137371184Y-42128817D01*
X137404952Y-42156530D01*
X143355000Y-48106579D01*
X143355001Y-49244605D01*
X143255919Y-49325920D01*
X143085473Y-49533609D01*
X143075812Y-49435518D01*
X143039502Y-49315820D01*
X142980537Y-49205506D01*
X142901185Y-49108815D01*
X142804494Y-49029463D01*
X142694180Y-48970498D01*
X142574482Y-48934188D01*
X142450000Y-48921928D01*
X140950000Y-48921928D01*
X140925882Y-48924303D01*
X135839000Y-43837422D01*
X135839000Y-5571092D01*
X137155565Y-4254600D01*
X144064804Y-4254600D01*
X144065000Y-4284250D01*
%TA.AperFunction,Conductor*%
D18*
G36*
X144065000Y-4284250D02*
G01*
X144223750Y-4443000D01*
X145573000Y-4443000D01*
X145573000Y-4423000D01*
X145827000Y-4423000D01*
X145827000Y-4443000D01*
X147176250Y-4443000D01*
X147335000Y-4284250D01*
X147335196Y-4254600D01*
X169253389Y-4254600D01*
X172133449Y-7135023D01*
X172161183Y-7168817D01*
X172232622Y-7227446D01*
X172295894Y-7279379D01*
X172295917Y-7279391D01*
X172295941Y-7279411D01*
X172375962Y-7322183D01*
X172449634Y-7361567D01*
X172449661Y-7361575D01*
X172449687Y-7361589D01*
X172534755Y-7387395D01*
X172616455Y-7412184D01*
X172616483Y-7412187D01*
X172616510Y-7412195D01*
X172712908Y-7421689D01*
X172789944Y-7429281D01*
X172833441Y-7425000D01*
X173555344Y-7425000D01*
X173596525Y-7486632D01*
X173803368Y-7693475D01*
X173985534Y-7815195D01*
X173868645Y-7884822D01*
X173652412Y-8079731D01*
X173478359Y-8313080D01*
X173353175Y-8575901D01*
X173308524Y-8723110D01*
X173429845Y-8953000D01*
X174623000Y-8953000D01*
X174623000Y-8933000D01*
X174877000Y-8933000D01*
X174877000Y-8953000D01*
X176070155Y-8953000D01*
X176191476Y-8723110D01*
X176146825Y-8575901D01*
X176021641Y-8313080D01*
X175847588Y-8079731D01*
X175631355Y-7884822D01*
X175514466Y-7815195D01*
X175696632Y-7693475D01*
X175903475Y-7486632D01*
X175944656Y-7425000D01*
X179055344Y-7425000D01*
X179096525Y-7486632D01*
X179303368Y-7693475D01*
X179485534Y-7815195D01*
X179368645Y-7884822D01*
X179152412Y-8079731D01*
X178978359Y-8313080D01*
X178853175Y-8575901D01*
X178808524Y-8723110D01*
X178929845Y-8953000D01*
X180123000Y-8953000D01*
X180123000Y-8933000D01*
X180377000Y-8933000D01*
X180377000Y-8953000D01*
X181570155Y-8953000D01*
X181691476Y-8723110D01*
X181646825Y-8575901D01*
X181521641Y-8313080D01*
X181347588Y-8079731D01*
X181131355Y-7884822D01*
X181014466Y-7815195D01*
X181196632Y-7693475D01*
X181403475Y-7486632D01*
X181565990Y-7243411D01*
X181677932Y-6973158D01*
X181735000Y-6686260D01*
X181735000Y-6393740D01*
X181677932Y-6106842D01*
X181565990Y-5836589D01*
X181403475Y-5593368D01*
X181271620Y-5461513D01*
X181344180Y-5439502D01*
X181454494Y-5380537D01*
X181551185Y-5301185D01*
X181630537Y-5204494D01*
X181689502Y-5094180D01*
X181725135Y-4976713D01*
X182615000Y-5866579D01*
X182615001Y-21493420D01*
X180063422Y-24045000D01*
X172026578Y-24045000D01*
X172845050Y-23226529D01*
X172878817Y-23198817D01*
X172908058Y-23163188D01*
X172989411Y-23064059D01*
X173034973Y-22978817D01*
X173048996Y-22952582D01*
X173095045Y-22906533D01*
X173128817Y-22878817D01*
X173239411Y-22744059D01*
X173321589Y-22590313D01*
X173372195Y-22423490D01*
X173385000Y-22293477D01*
X173385000Y-22293467D01*
X173389281Y-22250001D01*
X173385000Y-22206535D01*
X173385000Y-21186890D01*
X173558524Y-21186890D01*
X173603175Y-21334099D01*
X173728359Y-21596920D01*
X173902412Y-21830269D01*
X174118645Y-22025178D01*
X174368748Y-22174157D01*
X174643109Y-22271481D01*
X174873000Y-22150814D01*
X174873000Y-20957000D01*
X175127000Y-20957000D01*
X175127000Y-22150814D01*
X175356891Y-22271481D01*
X175631252Y-22174157D01*
X175881355Y-22025178D01*
X176097588Y-21830269D01*
X176271641Y-21596920D01*
X176396825Y-21334099D01*
X176441476Y-21186890D01*
X176320155Y-20957000D01*
X175127000Y-20957000D01*
X174873000Y-20957000D01*
X173679845Y-20957000D01*
X173558524Y-21186890D01*
X173385000Y-21186890D01*
X173385000Y-19616578D01*
X173813849Y-19187729D01*
X173846525Y-19236632D01*
X174053368Y-19443475D01*
X174235534Y-19565195D01*
X174118645Y-19634822D01*
X173902412Y-19829731D01*
X173728359Y-20063080D01*
X173603175Y-20325901D01*
X173558524Y-20473110D01*
X173679845Y-20703000D01*
X174873000Y-20703000D01*
X174873000Y-20683000D01*
X175127000Y-20683000D01*
X175127000Y-20703000D01*
X176320155Y-20703000D01*
X176441476Y-20473110D01*
X176396825Y-20325901D01*
X176271641Y-20063080D01*
X176097588Y-19829731D01*
X175881355Y-19634822D01*
X175764466Y-19565195D01*
X175946632Y-19443475D01*
X176153475Y-19236632D01*
X176315990Y-18993411D01*
X176427932Y-18723158D01*
X176485000Y-18436260D01*
X176485000Y-18143740D01*
X176427932Y-17856842D01*
X176315990Y-17586589D01*
X176153475Y-17343368D01*
X176021620Y-17211513D01*
X176094180Y-17189502D01*
X176204494Y-17130537D01*
X176301185Y-17051185D01*
X176380537Y-16954494D01*
X176439502Y-16844180D01*
X176475812Y-16724482D01*
X176488072Y-16600000D01*
X176488072Y-14900000D01*
X176475812Y-14775518D01*
X176439502Y-14655820D01*
X176380537Y-14545506D01*
X176301185Y-14448815D01*
X176204494Y-14369463D01*
X176094180Y-14310498D01*
X175974482Y-14274188D01*
X175850000Y-14261928D01*
X174150000Y-14261928D01*
X174025518Y-14274188D01*
X173905820Y-14310498D01*
X173795506Y-14369463D01*
X173698815Y-14448815D01*
X173619463Y-14545506D01*
X173560498Y-14655820D01*
X173524188Y-14775518D01*
X173515375Y-14865000D01*
X171293469Y-14865000D01*
X171250000Y-14860719D01*
X171206531Y-14865000D01*
X171206523Y-14865000D01*
X171076510Y-14877805D01*
X170909686Y-14928411D01*
X170755941Y-15010589D01*
X170654953Y-15093468D01*
X170654951Y-15093470D01*
X170621183Y-15121183D01*
X170593470Y-15154951D01*
X169654951Y-16093471D01*
X169621184Y-16121183D01*
X169593471Y-16154951D01*
X169593468Y-16154954D01*
X169510590Y-16255941D01*
X169428412Y-16409687D01*
X169377805Y-16576510D01*
X169360719Y-16750000D01*
X169365001Y-16793479D01*
X169365000Y-20383421D01*
X169024427Y-20723994D01*
X169107157Y-20623188D01*
X169235764Y-20382581D01*
X169314960Y-20121507D01*
X169341701Y-19850000D01*
X169314960Y-19578493D01*
X169235764Y-19317419D01*
X169107157Y-19076812D01*
X168934081Y-18865919D01*
X168723188Y-18692843D01*
X168512073Y-18580000D01*
X168723188Y-18467157D01*
X168934081Y-18294081D01*
X169107157Y-18083188D01*
X169235764Y-17842581D01*
X169314960Y-17581507D01*
X169341701Y-17310000D01*
X169314960Y-17038493D01*
X169235764Y-16777419D01*
X169107157Y-16536812D01*
X168934081Y-16325919D01*
X168723188Y-16152843D01*
X168512073Y-16040000D01*
X168723188Y-15927157D01*
X168934081Y-15754081D01*
X169107157Y-15543188D01*
X169235764Y-15302581D01*
X169314960Y-15041507D01*
X169341701Y-14770000D01*
X169314960Y-14498493D01*
X169235764Y-14237419D01*
X169107157Y-13996812D01*
X168934081Y-13785919D01*
X168723188Y-13612843D01*
X168512073Y-13500000D01*
X168723188Y-13387157D01*
X168934081Y-13214081D01*
X169107157Y-13003188D01*
X169235764Y-12762581D01*
X169314960Y-12501507D01*
X169341701Y-12230000D01*
X169314960Y-11958493D01*
X169235764Y-11697419D01*
X169107157Y-11456812D01*
X168934081Y-11245919D01*
X168726392Y-11075473D01*
X168824482Y-11065812D01*
X168944180Y-11029502D01*
X169054494Y-10970537D01*
X169151185Y-10891185D01*
X169230537Y-10794494D01*
X169289502Y-10684180D01*
X169325812Y-10564482D01*
X169338072Y-10440000D01*
X169338072Y-9436890D01*
X173308524Y-9436890D01*
X173353175Y-9584099D01*
X173478359Y-9846920D01*
X173652412Y-10080269D01*
X173868645Y-10275178D01*
X174118748Y-10424157D01*
X174393109Y-10521481D01*
X174623000Y-10400814D01*
X174623000Y-9207000D01*
X174877000Y-9207000D01*
X174877000Y-10400814D01*
X175106891Y-10521481D01*
X175381252Y-10424157D01*
X175631355Y-10275178D01*
X175847588Y-10080269D01*
X176021641Y-9846920D01*
X176146825Y-9584099D01*
X176191476Y-9436890D01*
X178808524Y-9436890D01*
X178853175Y-9584099D01*
X178978359Y-9846920D01*
X179152412Y-10080269D01*
X179368645Y-10275178D01*
X179618748Y-10424157D01*
X179893109Y-10521481D01*
X180123000Y-10400814D01*
X180123000Y-9207000D01*
X180377000Y-9207000D01*
X180377000Y-10400814D01*
X180606891Y-10521481D01*
X180881252Y-10424157D01*
X181131355Y-10275178D01*
X181347588Y-10080269D01*
X181521641Y-9846920D01*
X181646825Y-9584099D01*
X181691476Y-9436890D01*
X181570155Y-9207000D01*
X180377000Y-9207000D01*
X180123000Y-9207000D01*
X178929845Y-9207000D01*
X178808524Y-9436890D01*
X176191476Y-9436890D01*
X176070155Y-9207000D01*
X174877000Y-9207000D01*
X174623000Y-9207000D01*
X173429845Y-9207000D01*
X173308524Y-9436890D01*
X169338072Y-9436890D01*
X169338072Y-8940000D01*
X169325812Y-8815518D01*
X169289502Y-8695820D01*
X169230537Y-8585506D01*
X169151185Y-8488815D01*
X169054494Y-8409463D01*
X168944180Y-8350498D01*
X168824482Y-8314188D01*
X168700000Y-8301928D01*
X166700000Y-8301928D01*
X166575518Y-8314188D01*
X166455820Y-8350498D01*
X166345506Y-8409463D01*
X166248815Y-8488815D01*
X166169463Y-8585506D01*
X166110498Y-8695820D01*
X166074188Y-8815518D01*
X166061928Y-8940000D01*
X166061928Y-10440000D01*
X166074188Y-10564482D01*
X166110498Y-10684180D01*
X166169463Y-10794494D01*
X166248815Y-10891185D01*
X166345506Y-10970537D01*
X166455820Y-11029502D01*
X166575518Y-11065812D01*
X166673608Y-11075473D01*
X166465919Y-11245919D01*
X166292843Y-11456812D01*
X166164236Y-11697419D01*
X166085040Y-11958493D01*
X166058299Y-12230000D01*
X166085040Y-12501507D01*
X166164236Y-12762581D01*
X166292843Y-13003188D01*
X166465919Y-13214081D01*
X166676812Y-13387157D01*
X166887927Y-13500000D01*
X166676812Y-13612843D01*
X166465919Y-13785919D01*
X166292843Y-13996812D01*
X166164236Y-14237419D01*
X166085040Y-14498493D01*
X166058299Y-14770000D01*
X166085040Y-15041507D01*
X166164236Y-15302581D01*
X166292843Y-15543188D01*
X166465919Y-15754081D01*
X166676812Y-15927157D01*
X166887927Y-16040000D01*
X166676812Y-16152843D01*
X166465919Y-16325919D01*
X166292843Y-16536812D01*
X166164236Y-16777419D01*
X166085040Y-17038493D01*
X166058299Y-17310000D01*
X166085040Y-17581507D01*
X166164236Y-17842581D01*
X166292843Y-18083188D01*
X166465919Y-18294081D01*
X166676812Y-18467157D01*
X166887927Y-18580000D01*
X166676812Y-18692843D01*
X166465919Y-18865919D01*
X166292843Y-19076812D01*
X166164236Y-19317419D01*
X166085040Y-19578493D01*
X166058299Y-19850000D01*
X166085040Y-20121507D01*
X166164236Y-20382581D01*
X166292843Y-20623188D01*
X166465919Y-20834081D01*
X166676812Y-21007157D01*
X166887927Y-21120000D01*
X166676812Y-21232843D01*
X166465919Y-21405919D01*
X166292843Y-21616812D01*
X166164236Y-21857419D01*
X166085040Y-22118493D01*
X166058299Y-22390000D01*
X166085040Y-22661507D01*
X166119037Y-22773579D01*
X166089999Y-22770719D01*
X166046533Y-22775000D01*
X166046523Y-22775000D01*
X165916510Y-22787805D01*
X165749687Y-22838411D01*
X165595941Y-22920589D01*
X165595939Y-22920590D01*
X165595940Y-22920590D01*
X165494953Y-23003468D01*
X165494951Y-23003470D01*
X165461183Y-23031183D01*
X165433470Y-23064951D01*
X164654951Y-23843471D01*
X164621184Y-23871183D01*
X164593471Y-23904951D01*
X164593468Y-23904954D01*
X164510590Y-24005941D01*
X164428412Y-24159687D01*
X164377805Y-24326510D01*
X164360719Y-24500000D01*
X164365001Y-24543479D01*
X164365000Y-28206531D01*
X164360719Y-28250000D01*
X164365000Y-28293469D01*
X164365000Y-28293476D01*
X164377805Y-28423489D01*
X164428411Y-28590312D01*
X164510589Y-28744058D01*
X164621183Y-28878817D01*
X164654956Y-28906534D01*
X164873422Y-29125000D01*
X164283465Y-29125000D01*
X164239999Y-29120719D01*
X164196533Y-29125000D01*
X164196523Y-29125000D01*
X164066510Y-29137805D01*
X163899687Y-29188411D01*
X163745941Y-29270589D01*
X163745939Y-29270590D01*
X163745940Y-29270590D01*
X163644953Y-29353468D01*
X163644951Y-29353470D01*
X163611183Y-29381183D01*
X163583470Y-29414951D01*
X161404956Y-31593466D01*
X161371183Y-31621183D01*
X161260589Y-31755942D01*
X161178411Y-31909688D01*
X161127805Y-32076511D01*
X161115000Y-32206524D01*
X161115000Y-32206531D01*
X161110719Y-32250000D01*
X161115000Y-32293469D01*
X161115001Y-51133420D01*
X160508660Y-51739761D01*
X160637157Y-51583188D01*
X160765764Y-51342580D01*
X160844960Y-51081506D01*
X160865000Y-50878036D01*
X160865000Y-50241963D01*
X160844960Y-50038493D01*
X160765764Y-49777419D01*
X160637157Y-49536812D01*
X160635000Y-49534184D01*
X160635000Y-43293469D01*
X160639281Y-43250000D01*
X160635000Y-43206531D01*
X160635000Y-43206523D01*
X160622195Y-43076510D01*
X160598352Y-42997910D01*
X160571589Y-42909686D01*
X160489411Y-42755941D01*
X160406532Y-42654953D01*
X160406530Y-42654951D01*
X160378817Y-42621183D01*
X160345050Y-42593471D01*
X159635000Y-41883422D01*
X159635000Y-19043465D01*
X159639281Y-18999999D01*
X159635000Y-18956533D01*
X159635000Y-18956523D01*
X159622195Y-18826510D01*
X159571589Y-18659687D01*
X159489411Y-18505941D01*
X159454572Y-18463490D01*
X159406532Y-18404953D01*
X159406530Y-18404951D01*
X159378817Y-18371183D01*
X159345050Y-18343471D01*
X157676534Y-16674956D01*
X157648817Y-16641183D01*
X157514059Y-16530589D01*
X157360313Y-16448411D01*
X157193490Y-16397805D01*
X157063477Y-16385000D01*
X157063469Y-16385000D01*
X157020000Y-16380719D01*
X156976531Y-16385000D01*
X147015395Y-16385000D01*
X146934081Y-16285919D01*
X146723188Y-16112843D01*
X146512073Y-16000000D01*
X146723188Y-15887157D01*
X146934081Y-15714081D01*
X147107157Y-15503188D01*
X147235764Y-15262581D01*
X147314960Y-15001507D01*
X147341701Y-14730000D01*
X147314960Y-14458493D01*
X147235764Y-14197419D01*
X147107157Y-13956812D01*
X146934081Y-13745919D01*
X146723188Y-13572843D01*
X146512073Y-13460000D01*
X146723188Y-13347157D01*
X146934081Y-13174081D01*
X147107157Y-12963188D01*
X147235764Y-12722581D01*
X147314960Y-12461507D01*
X147341701Y-12190000D01*
X147314960Y-11918493D01*
X147235764Y-11657419D01*
X147107157Y-11416812D01*
X146934081Y-11205919D01*
X146723188Y-11032843D01*
X146512073Y-10920000D01*
X146723188Y-10807157D01*
X146934081Y-10634081D01*
X147107157Y-10423188D01*
X147235764Y-10182581D01*
X147314960Y-9921507D01*
X147341701Y-9650000D01*
X147314960Y-9378493D01*
X147235764Y-9117419D01*
X147107157Y-8876812D01*
X146934081Y-8665919D01*
X146723188Y-8492843D01*
X146512073Y-8380000D01*
X146723188Y-8267157D01*
X146934081Y-8094081D01*
X147107157Y-7883188D01*
X147235764Y-7642581D01*
X147314960Y-7381507D01*
X147341701Y-7110000D01*
X147314960Y-6838493D01*
X147235764Y-6577419D01*
X147107157Y-6336812D01*
X146934081Y-6125919D01*
X146726392Y-5955473D01*
X146824482Y-5945812D01*
X146944180Y-5909502D01*
X147054494Y-5850537D01*
X147151185Y-5771185D01*
X147230537Y-5674494D01*
X147289502Y-5564180D01*
X147325812Y-5444482D01*
X147338072Y-5320000D01*
X147335000Y-4855750D01*
X147176250Y-4697000D01*
X145827000Y-4697000D01*
X145827000Y-4717000D01*
X145573000Y-4717000D01*
X145573000Y-4697000D01*
X144223750Y-4697000D01*
X144065000Y-4855750D01*
X144061952Y-5316308D01*
X143994059Y-5260589D01*
X143840313Y-5178411D01*
X143673490Y-5127805D01*
X143543477Y-5115000D01*
X143543469Y-5115000D01*
X143500000Y-5110719D01*
X143456531Y-5115000D01*
X140293469Y-5115000D01*
X140250000Y-5110719D01*
X140206531Y-5115000D01*
X140206523Y-5115000D01*
X140091306Y-5126348D01*
X140076509Y-5127805D01*
X140025903Y-5143157D01*
X139909687Y-5178411D01*
X139755941Y-5260589D01*
X139755939Y-5260590D01*
X139755940Y-5260590D01*
X139654953Y-5343468D01*
X139654951Y-5343470D01*
X139621183Y-5371183D01*
X139593470Y-5404951D01*
X138986494Y-6011928D01*
X138150000Y-6011928D01*
X138025518Y-6024188D01*
X137905820Y-6060498D01*
X137795506Y-6119463D01*
X137698815Y-6198815D01*
X137619463Y-6295506D01*
X137560498Y-6405820D01*
X137524188Y-6525518D01*
X137511928Y-6650000D01*
X137511928Y-8350000D01*
X137524188Y-8474482D01*
X137560498Y-8594180D01*
X137619463Y-8704494D01*
X137698815Y-8801185D01*
X137795506Y-8880537D01*
X137905820Y-8939502D01*
X137986466Y-8963966D01*
X137902412Y-9039731D01*
X137728359Y-9273080D01*
X137603175Y-9535901D01*
X137558524Y-9683110D01*
X137679845Y-9913000D01*
X138873000Y-9913000D01*
X138873000Y-9893000D01*
X139127000Y-9893000D01*
X139127000Y-9913000D01*
X140320155Y-9913000D01*
X140441476Y-9683110D01*
X140396825Y-9535901D01*
X140271641Y-9273080D01*
X140097588Y-9039731D01*
X140013534Y-8963966D01*
X140094180Y-8939502D01*
X140204494Y-8880537D01*
X140301185Y-8801185D01*
X140380537Y-8704494D01*
X140439502Y-8594180D01*
X140475812Y-8474482D01*
X140488072Y-8350000D01*
X140488072Y-7013507D01*
X140616579Y-6885000D01*
X143133422Y-6885000D01*
X143953470Y-7705049D01*
X143981183Y-7738817D01*
X144014951Y-7766530D01*
X144014953Y-7766532D01*
X144086452Y-7825210D01*
X144115941Y-7849411D01*
X144269687Y-7931589D01*
X144353407Y-7956986D01*
X144465919Y-8094081D01*
X144676812Y-8267157D01*
X144887927Y-8380000D01*
X144676812Y-8492843D01*
X144465919Y-8665919D01*
X144292843Y-8876812D01*
X144164236Y-9117419D01*
X144085040Y-9378493D01*
X144058299Y-9650000D01*
X144085040Y-9921507D01*
X144164236Y-10182581D01*
X144292843Y-10423188D01*
X144465919Y-10634081D01*
X144676812Y-10807157D01*
X144887927Y-10920000D01*
X144676812Y-11032843D01*
X144465919Y-11205919D01*
X144292843Y-11416812D01*
X144164236Y-11657419D01*
X144085040Y-11918493D01*
X144058299Y-12190000D01*
X144085040Y-12461507D01*
X144164236Y-12722581D01*
X144292843Y-12963188D01*
X144465919Y-13174081D01*
X144676812Y-13347157D01*
X144887927Y-13460000D01*
X144676812Y-13572843D01*
X144465919Y-13745919D01*
X144292843Y-13956812D01*
X144164236Y-14197419D01*
X144085040Y-14458493D01*
X144058299Y-14730000D01*
X144085040Y-15001507D01*
X144164236Y-15262581D01*
X144292843Y-15503188D01*
X144465919Y-15714081D01*
X144676812Y-15887157D01*
X144887927Y-16000000D01*
X144676812Y-16112843D01*
X144465919Y-16285919D01*
X144292843Y-16496812D01*
X144164236Y-16737419D01*
X144085040Y-16998493D01*
X144058299Y-17270000D01*
X144085040Y-17541507D01*
X144164236Y-17802581D01*
X144292843Y-18043188D01*
X144465919Y-18254081D01*
X144676812Y-18427157D01*
X144887927Y-18540000D01*
X144676812Y-18652843D01*
X144465919Y-18825919D01*
X144292843Y-19036812D01*
X144164236Y-19277419D01*
X144085040Y-19538493D01*
X144058299Y-19810000D01*
X144085040Y-20081507D01*
X144164236Y-20342581D01*
X144292843Y-20583188D01*
X144465919Y-20794081D01*
X144676812Y-20967157D01*
X144887927Y-21080000D01*
X144676812Y-21192843D01*
X144465919Y-21365919D01*
X144340148Y-21519171D01*
X144309687Y-21528411D01*
X144228906Y-21571589D01*
X144155941Y-21610589D01*
X144054953Y-21693468D01*
X144054951Y-21693470D01*
X144021183Y-21721183D01*
X143993470Y-21754951D01*
X142154956Y-23593466D01*
X142121183Y-23621183D01*
X142010589Y-23755942D01*
X141928411Y-23909688D01*
X141877805Y-24076511D01*
X141865000Y-24206524D01*
X141865000Y-24206531D01*
X141860719Y-24250000D01*
X141865000Y-24293469D01*
X141865001Y-38656521D01*
X141860719Y-38700000D01*
X141877805Y-38873490D01*
X141928412Y-39040313D01*
X142010590Y-39194059D01*
X142093468Y-39295046D01*
X142093471Y-39295049D01*
X142121184Y-39328817D01*
X142154952Y-39356530D01*
X150975000Y-48176579D01*
X150975001Y-49244605D01*
X150875919Y-49325920D01*
X150702843Y-49536813D01*
X150590000Y-49747927D01*
X150477157Y-49536812D01*
X150304080Y-49325919D01*
X150093187Y-49152843D01*
X149852580Y-49024236D01*
X149591506Y-48945040D01*
X149320000Y-48918299D01*
X149048493Y-48945040D01*
X148787419Y-49024236D01*
X148546812Y-49152843D01*
X148335919Y-49325920D01*
X148162843Y-49536813D01*
X148051550Y-49745029D01*
X148029968Y-49688276D01*
X147884658Y-49456366D01*
X147696897Y-49257260D01*
X147473900Y-49098610D01*
X147224236Y-48986513D01*
X147121185Y-48967682D01*
X146907000Y-49090344D01*
X146907000Y-50433000D01*
X146927000Y-50433000D01*
X146927000Y-50687000D01*
X146907000Y-50687000D01*
X146907000Y-52029656D01*
X147121185Y-52152318D01*
X147224236Y-52133487D01*
X147473900Y-52021390D01*
X147696897Y-51862740D01*
X147884658Y-51663634D01*
X148029968Y-51431724D01*
X148051549Y-51374972D01*
X148162843Y-51583188D01*
X148335920Y-51794081D01*
X148436277Y-51876442D01*
X148447805Y-51993489D01*
X148498411Y-52160312D01*
X148580589Y-52314058D01*
X148691183Y-52448817D01*
X148724956Y-52476534D01*
X150093470Y-53845049D01*
X150121183Y-53878817D01*
X150154951Y-53906530D01*
X150154953Y-53906532D01*
X150226452Y-53965210D01*
X150255941Y-53989411D01*
X150409687Y-54071589D01*
X150576510Y-54122195D01*
X150706523Y-54135000D01*
X150706533Y-54135000D01*
X150749999Y-54139281D01*
X150793465Y-54135000D01*
X160206531Y-54135000D01*
X160250000Y-54139281D01*
X160293469Y-54135000D01*
X160293477Y-54135000D01*
X160423490Y-54122195D01*
X160590313Y-54071589D01*
X160744059Y-53989411D01*
X160878817Y-53878817D01*
X160906534Y-53845044D01*
X162595049Y-52156530D01*
X162628817Y-52128817D01*
X162739411Y-51994059D01*
X162821589Y-51840313D01*
X162872195Y-51673490D01*
X162885000Y-51543477D01*
X162885000Y-51543469D01*
X162889281Y-51500000D01*
X162885000Y-51456531D01*
X162885000Y-32616578D01*
X164606579Y-30895000D01*
X166384605Y-30895000D01*
X166465919Y-30994081D01*
X166676812Y-31167157D01*
X166887927Y-31280000D01*
X166676812Y-31392843D01*
X166465919Y-31565919D01*
X166292843Y-31776812D01*
X166164236Y-32017419D01*
X166085040Y-32278493D01*
X166070303Y-32428118D01*
X165154956Y-33343466D01*
X165121183Y-33371183D01*
X165010589Y-33505942D01*
X164928411Y-33659688D01*
X164877805Y-33826511D01*
X164865000Y-33956524D01*
X164865000Y-33956531D01*
X164860719Y-34000000D01*
X164865000Y-34043469D01*
X164865001Y-43706521D01*
X164860719Y-43750000D01*
X164877805Y-43923490D01*
X164928412Y-44090313D01*
X165010590Y-44244059D01*
X165093468Y-44345046D01*
X165093471Y-44345049D01*
X165121184Y-44378817D01*
X165154951Y-44406529D01*
X167843470Y-47095049D01*
X167871183Y-47128817D01*
X167904951Y-47156530D01*
X167904953Y-47156532D01*
X167976139Y-47214953D01*
X168005941Y-47239411D01*
X168159687Y-47321589D01*
X168326510Y-47372195D01*
X168456523Y-47385000D01*
X168456533Y-47385000D01*
X168499999Y-47389281D01*
X168543465Y-47385000D01*
X185206531Y-47385000D01*
X185250000Y-47389281D01*
X185293469Y-47385000D01*
X185293477Y-47385000D01*
X185423490Y-47372195D01*
X185590313Y-47321589D01*
X185744059Y-47239411D01*
X185878817Y-47128817D01*
X185906534Y-47095044D01*
X188295050Y-44706529D01*
X188328817Y-44678817D01*
X188369852Y-44628817D01*
X188419092Y-44568817D01*
X188439411Y-44544059D01*
X188521589Y-44390313D01*
X188572195Y-44223490D01*
X188585000Y-44093477D01*
X188585000Y-44093467D01*
X188589281Y-44050001D01*
X188585000Y-44006535D01*
X188585000Y-43314625D01*
X188674482Y-43305812D01*
X188794180Y-43269502D01*
X188904494Y-43210537D01*
X189001185Y-43131185D01*
X189080537Y-43034494D01*
X189139502Y-42924180D01*
X189175812Y-42804482D01*
X189188072Y-42680000D01*
X189188072Y-40980000D01*
X189175812Y-40855518D01*
X189139502Y-40735820D01*
X189080537Y-40625506D01*
X189001185Y-40528815D01*
X188904494Y-40449463D01*
X188794180Y-40390498D01*
X188674482Y-40354188D01*
X188550000Y-40341928D01*
X186850000Y-40341928D01*
X186725518Y-40354188D01*
X186605820Y-40390498D01*
X186495506Y-40449463D01*
X186398815Y-40528815D01*
X186319463Y-40625506D01*
X186260498Y-40735820D01*
X186238487Y-40808380D01*
X186106632Y-40676525D01*
X185863411Y-40514010D01*
X185593158Y-40402068D01*
X185306260Y-40345000D01*
X185013740Y-40345000D01*
X184726842Y-40402068D01*
X184456589Y-40514010D01*
X184213368Y-40676525D01*
X184006525Y-40883368D01*
X183890000Y-41057760D01*
X183773475Y-40883368D01*
X183566632Y-40676525D01*
X183505000Y-40635344D01*
X183505000Y-40163469D01*
X183509281Y-40120000D01*
X183505000Y-40076531D01*
X183505000Y-40076523D01*
X183498448Y-40010000D01*
X189758422Y-40010000D01*
X190365001Y-40616580D01*
X190365000Y-43633421D01*
X180404959Y-53593463D01*
X180404953Y-53593468D01*
X176133422Y-57865000D01*
X147366579Y-57865000D01*
X145125000Y-55623422D01*
X145125000Y-51875395D01*
X145224081Y-51794081D01*
X145397157Y-51583188D01*
X145508451Y-51374971D01*
X145530032Y-51431724D01*
X145675342Y-51663634D01*
X145863103Y-51862740D01*
X146086100Y-52021390D01*
X146335764Y-52133487D01*
X146438815Y-52152318D01*
X146653000Y-52029656D01*
X146653000Y-50687000D01*
X146633000Y-50687000D01*
X146633000Y-50433000D01*
X146653000Y-50433000D01*
X146653000Y-49090344D01*
X146438815Y-48967682D01*
X146335764Y-48986513D01*
X146086100Y-49098610D01*
X145863103Y-49257260D01*
X145675342Y-49456366D01*
X145530032Y-49688276D01*
X145508451Y-49745028D01*
X145397157Y-49536812D01*
X145224080Y-49325919D01*
X145125000Y-49244606D01*
X145125000Y-47783469D01*
X145129281Y-47740000D01*
X145125000Y-47696531D01*
X145125000Y-47696523D01*
X145112195Y-47566510D01*
X145082823Y-47469686D01*
X145061589Y-47399686D01*
X144979411Y-47245941D01*
X144896532Y-47144953D01*
X144896530Y-47144951D01*
X144868817Y-47111183D01*
X144835051Y-47083472D01*
X138885000Y-41133422D01*
X138885000Y-14065000D01*
X139146260Y-14065000D01*
X139433158Y-14007932D01*
X139703411Y-13895990D01*
X139946632Y-13733475D01*
X140153475Y-13526632D01*
X140315990Y-13283411D01*
X140427932Y-13013158D01*
X140485000Y-12726260D01*
X140485000Y-12433740D01*
X140427932Y-12146842D01*
X140315990Y-11876589D01*
X140153475Y-11633368D01*
X139946632Y-11426525D01*
X139764466Y-11304805D01*
X139881355Y-11235178D01*
X140097588Y-11040269D01*
X140271641Y-10806920D01*
X140396825Y-10544099D01*
X140441476Y-10396890D01*
X140320155Y-10167000D01*
X139127000Y-10167000D01*
X139127000Y-10187000D01*
X138873000Y-10187000D01*
X138873000Y-10167000D01*
X137679845Y-10167000D01*
X137558524Y-10396890D01*
X137603175Y-10544099D01*
X137728359Y-10806920D01*
X137902412Y-11040269D01*
X138118645Y-11235178D01*
X138235534Y-11304805D01*
X138053368Y-11426525D01*
X137846525Y-11633368D01*
X137684010Y-11876589D01*
X137572068Y-12146842D01*
X137515000Y-12433740D01*
X137515000Y-12726260D01*
X137516188Y-12732234D01*
X137404956Y-12843466D01*
X137371183Y-12871183D01*
X137260589Y-13005942D01*
X137178411Y-13159688D01*
X137127805Y-13326511D01*
X137115000Y-13456524D01*
X137115000Y-13456531D01*
X137110719Y-13500000D01*
X137115000Y-13543469D01*
X137115001Y-41456521D01*
X137110719Y-41500000D01*
X137127805Y-41673490D01*
X137178412Y-41840313D01*
X137260590Y-41994059D01*
X137343468Y-42095046D01*
X137343471Y-42095049D01*
X137371184Y-42128817D01*
X137404952Y-42156530D01*
X143355000Y-48106579D01*
X143355001Y-49244605D01*
X143255919Y-49325920D01*
X143085473Y-49533609D01*
X143075812Y-49435518D01*
X143039502Y-49315820D01*
X142980537Y-49205506D01*
X142901185Y-49108815D01*
X142804494Y-49029463D01*
X142694180Y-48970498D01*
X142574482Y-48934188D01*
X142450000Y-48921928D01*
X140950000Y-48921928D01*
X140925882Y-48924303D01*
X135839000Y-43837422D01*
X135839000Y-5571092D01*
X137155565Y-4254600D01*
X144064804Y-4254600D01*
X144065000Y-4284250D01*
G37*
%TD.AperFunction*%
D17*
X180779953Y-39531532D02*
X180779958Y-39531536D01*
X180968467Y-39720045D01*
X180996183Y-39753817D01*
X181029954Y-39781532D01*
X181735000Y-40486579D01*
X181735000Y-40635344D01*
X181673368Y-40676525D01*
X181466525Y-40883368D01*
X181344805Y-41065534D01*
X181275178Y-40948645D01*
X181080269Y-40732412D01*
X180846920Y-40558359D01*
X180584099Y-40433175D01*
X180436890Y-40388524D01*
X180207000Y-40509845D01*
X180207000Y-41703000D01*
X180227000Y-41703000D01*
X180227000Y-41957000D01*
X180207000Y-41957000D01*
X180207000Y-43150155D01*
X180436890Y-43271476D01*
X180584099Y-43226825D01*
X180846920Y-43101641D01*
X181080269Y-42927588D01*
X181275178Y-42711355D01*
X181344805Y-42594466D01*
X181466525Y-42776632D01*
X181673368Y-42983475D01*
X181916589Y-43145990D01*
X182186842Y-43257932D01*
X182473740Y-43315000D01*
X182766260Y-43315000D01*
X183053158Y-43257932D01*
X183323411Y-43145990D01*
X183566632Y-42983475D01*
X183773475Y-42776632D01*
X183890000Y-42602240D01*
X184006525Y-42776632D01*
X184114157Y-42884264D01*
X183383422Y-43615000D01*
X176276279Y-43615000D01*
X174861386Y-42200108D01*
X174861382Y-42200103D01*
X174848170Y-42186891D01*
X178638519Y-42186891D01*
X178735843Y-42461252D01*
X178884822Y-42711355D01*
X179079731Y-42927588D01*
X179313080Y-43101641D01*
X179575901Y-43226825D01*
X179723110Y-43271476D01*
X179953000Y-43150155D01*
X179953000Y-41957000D01*
X178759186Y-41957000D01*
X178638519Y-42186891D01*
X174848170Y-42186891D01*
X174134388Y-41473109D01*
X178638519Y-41473109D01*
X178759186Y-41703000D01*
X179953000Y-41703000D01*
X179953000Y-40509845D01*
X179723110Y-40388524D01*
X179575901Y-40433175D01*
X179313080Y-40558359D01*
X179079731Y-40732412D01*
X178884822Y-40948645D01*
X178735843Y-41198748D01*
X178638519Y-41473109D01*
X174134388Y-41473109D01*
X168824934Y-36163656D01*
X168934081Y-36074081D01*
X169107157Y-35863188D01*
X169235764Y-35622581D01*
X169314960Y-35361507D01*
X169341701Y-35090000D01*
X169314960Y-34818493D01*
X169235764Y-34557419D01*
X169107157Y-34316812D01*
X168934081Y-34105919D01*
X168723188Y-33932843D01*
X168512073Y-33820000D01*
X168723188Y-33707157D01*
X168934081Y-33534081D01*
X169107157Y-33323188D01*
X169235764Y-33082581D01*
X169314960Y-32821507D01*
X169341701Y-32550000D01*
X169314960Y-32278493D01*
X169235764Y-32017419D01*
X169107157Y-31776812D01*
X168934081Y-31565919D01*
X168723188Y-31392843D01*
X168512073Y-31280000D01*
X168723188Y-31167157D01*
X168934081Y-30994081D01*
X169107157Y-30783188D01*
X169235764Y-30542581D01*
X169314960Y-30281507D01*
X169341701Y-30010000D01*
X169314960Y-29738493D01*
X169280532Y-29625000D01*
X170873422Y-29625000D01*
X180779953Y-39531532D01*
%TA.AperFunction,Conductor*%
D18*
G36*
X180779953Y-39531532D02*
G01*
X180779958Y-39531536D01*
X180968467Y-39720045D01*
X180996183Y-39753817D01*
X181029954Y-39781532D01*
X181735000Y-40486579D01*
X181735000Y-40635344D01*
X181673368Y-40676525D01*
X181466525Y-40883368D01*
X181344805Y-41065534D01*
X181275178Y-40948645D01*
X181080269Y-40732412D01*
X180846920Y-40558359D01*
X180584099Y-40433175D01*
X180436890Y-40388524D01*
X180207000Y-40509845D01*
X180207000Y-41703000D01*
X180227000Y-41703000D01*
X180227000Y-41957000D01*
X180207000Y-41957000D01*
X180207000Y-43150155D01*
X180436890Y-43271476D01*
X180584099Y-43226825D01*
X180846920Y-43101641D01*
X181080269Y-42927588D01*
X181275178Y-42711355D01*
X181344805Y-42594466D01*
X181466525Y-42776632D01*
X181673368Y-42983475D01*
X181916589Y-43145990D01*
X182186842Y-43257932D01*
X182473740Y-43315000D01*
X182766260Y-43315000D01*
X183053158Y-43257932D01*
X183323411Y-43145990D01*
X183566632Y-42983475D01*
X183773475Y-42776632D01*
X183890000Y-42602240D01*
X184006525Y-42776632D01*
X184114157Y-42884264D01*
X183383422Y-43615000D01*
X176276279Y-43615000D01*
X174861386Y-42200108D01*
X174861382Y-42200103D01*
X174848170Y-42186891D01*
X178638519Y-42186891D01*
X178735843Y-42461252D01*
X178884822Y-42711355D01*
X179079731Y-42927588D01*
X179313080Y-43101641D01*
X179575901Y-43226825D01*
X179723110Y-43271476D01*
X179953000Y-43150155D01*
X179953000Y-41957000D01*
X178759186Y-41957000D01*
X178638519Y-42186891D01*
X174848170Y-42186891D01*
X174134388Y-41473109D01*
X178638519Y-41473109D01*
X178759186Y-41703000D01*
X179953000Y-41703000D01*
X179953000Y-40509845D01*
X179723110Y-40388524D01*
X179575901Y-40433175D01*
X179313080Y-40558359D01*
X179079731Y-40732412D01*
X178884822Y-40948645D01*
X178735843Y-41198748D01*
X178638519Y-41473109D01*
X174134388Y-41473109D01*
X168824934Y-36163656D01*
X168934081Y-36074081D01*
X169107157Y-35863188D01*
X169235764Y-35622581D01*
X169314960Y-35361507D01*
X169341701Y-35090000D01*
X169314960Y-34818493D01*
X169235764Y-34557419D01*
X169107157Y-34316812D01*
X168934081Y-34105919D01*
X168723188Y-33932843D01*
X168512073Y-33820000D01*
X168723188Y-33707157D01*
X168934081Y-33534081D01*
X169107157Y-33323188D01*
X169235764Y-33082581D01*
X169314960Y-32821507D01*
X169341701Y-32550000D01*
X169314960Y-32278493D01*
X169235764Y-32017419D01*
X169107157Y-31776812D01*
X168934081Y-31565919D01*
X168723188Y-31392843D01*
X168512073Y-31280000D01*
X168723188Y-31167157D01*
X168934081Y-30994081D01*
X169107157Y-30783188D01*
X169235764Y-30542581D01*
X169314960Y-30281507D01*
X169341701Y-30010000D01*
X169314960Y-29738493D01*
X169280532Y-29625000D01*
X170873422Y-29625000D01*
X180779953Y-39531532D01*
G37*
%TD.AperFunction*%
%TD*%
M02*
