M48
; DRILL file {KiCad (5.1.12)-1} date 10/09/23 14:32:20
; FORMAT={-:-/ absolute / metric / decimal}
; #@! TF.CreationDate,2023-10-09T14:32:20-05:00
; #@! TF.GenerationSoftware,Kicad,Pcbnew,(5.1.12)-1
; #@! TF.FileFunction,Plated,1,2,PTH
FMAT,2
METRIC
T1C1.000
T2C1.100
T3C1.300
%
G90
G05
T1
X142.83Y-9.01
X178.35Y-4.0
X178.6Y-15.75
X183.8Y-4.0
X192.08Y-77.26
X194.62Y-77.26
X194.63Y-41.32
X197.16Y-77.26
X197.17Y-41.32
X199.7Y-77.26
X199.71Y-41.32
X202.24Y-77.26
X202.25Y-41.32
X204.78Y-77.26
T2
X142.83Y-11.55
X142.83Y-14.09
X145.3Y-50.56
X147.03Y-56.39
X147.84Y-50.56
X149.7Y3.1
X149.7Y0.56
X149.7Y-1.98
X149.7Y-4.52
X149.7Y-7.06
X149.7Y-9.6
X149.7Y-12.14
X149.7Y-14.68
X149.7Y-17.22
X149.7Y-19.76
X149.7Y-22.3
X149.7Y-24.84
X149.7Y-27.38
X149.7Y-29.92
X149.7Y-32.46
X149.7Y-35.0
X150.38Y-50.56
X150.84Y-56.39
X152.92Y-50.56
X155.46Y-50.56
X158.0Y-50.56
X160.54Y-50.56
X163.08Y-50.56
X171.68Y-7.1
X171.68Y-9.64
X171.7Y-12.18
X171.7Y-14.72
X171.7Y-17.26
X171.7Y-19.8
X171.7Y-22.34
X171.7Y-24.88
X171.7Y-27.42
X171.7Y-29.96
X171.7Y-32.5
X171.7Y-35.04
X178.35Y-6.54
X178.35Y-9.08
X178.6Y-18.29
X178.6Y-20.83
X183.8Y-6.54
X183.8Y-9.08
X197.61Y-18.66
X197.71Y-5.84
X200.15Y-18.66
X200.25Y-5.84
X202.69Y-18.66
X202.79Y-5.84
T3
X197.78Y4.94
X202.78Y4.94
T0
M30
