M48
; DRILL file {KiCad (5.1.12)-1} date 07/26/23 10:38:01
; FORMAT={-:-/ absolute / metric / decimal}
; #@! TF.CreationDate,2023-07-26T10:38:01-05:00
; #@! TF.GenerationSoftware,Kicad,Pcbnew,(5.1.12)-1
; #@! TF.FileFunction,Plated,1,2,PTH
FMAT,2
METRIC
T1C1.000
T2C1.100
%
G90
G05
T1
X142.6Y-7.5
X178.35Y-4.0
X178.6Y-15.75
X181.13Y-77.77
X183.67Y-77.77
X183.68Y-41.83
X183.8Y-4.0
X186.21Y-77.77
X186.22Y-41.83
X188.75Y-77.77
X188.76Y-41.83
X191.29Y-77.77
X191.3Y-41.83
X193.83Y-77.77
T2
X140.8Y-19.6
X142.6Y-10.04
X142.6Y-12.58
X144.61Y-19.6
X145.3Y-50.56
X147.84Y-50.56
X149.7Y3.1
X149.7Y0.56
X149.7Y-1.98
X149.7Y-4.52
X149.7Y-7.06
X149.7Y-9.6
X149.7Y-12.14
X149.7Y-14.68
X149.7Y-17.22
X149.7Y-19.76
X149.7Y-22.3
X149.7Y-24.84
X149.7Y-27.38
X149.7Y-29.92
X149.7Y-32.46
X149.7Y-35.0
X150.38Y-50.56
X152.92Y-50.56
X155.46Y-50.56
X158.0Y-50.56
X160.54Y-50.56
X163.08Y-50.56
X171.68Y-7.1
X171.68Y-9.64
X171.7Y-12.18
X171.7Y-14.72
X171.7Y-17.26
X171.7Y-19.8
X171.7Y-22.34
X171.7Y-24.88
X171.7Y-27.42
X171.7Y-29.96
X171.7Y-32.5
X171.7Y-35.04
X178.35Y-6.54
X178.35Y-9.08
X178.6Y-18.29
X178.6Y-20.83
X183.8Y-6.54
X183.8Y-9.08
T0
M30
