%TF.GenerationSoftware,KiCad,Pcbnew,(5.1.12)-1*%
%TF.CreationDate,2023-06-13T13:28:39-05:00*%
%TF.ProjectId,Dispen2,44697370-656e-4322-9e6b-696361645f70,rev?*%
%TF.SameCoordinates,Original*%
%TF.FileFunction,AssemblyDrawing,Top*%
%FSLAX46Y46*%
G04 Gerber Fmt 4.6, Leading zero omitted, Abs format (unit mm)*
G04 Created by KiCad (PCBNEW (5.1.12)-1) date 2023-06-13 13:28:39*
%MOMM*%
%LPD*%
G01*
G04 APERTURE LIST*
%ADD10C,0.100000*%
%ADD11C,0.200000*%
%ADD12C,0.150000*%
G04 APERTURE END LIST*
D10*
%TO.C,U2*%
X178810000Y-40560000D02*
X188335000Y-40560000D01*
X188335000Y-40560000D02*
X188970000Y-41195000D01*
X188970000Y-41195000D02*
X188970000Y-43100000D01*
X188970000Y-43100000D02*
X178810000Y-43100000D01*
X178810000Y-43100000D02*
X178810000Y-40560000D01*
X176260000Y-76500000D02*
X190865000Y-76500000D01*
X190865000Y-76500000D02*
X191500000Y-77135000D01*
X176260000Y-79040000D02*
X176260000Y-76500000D01*
X191500000Y-77135000D02*
X191500000Y-79040000D01*
X191500000Y-79040000D02*
X176260000Y-79040000D01*
%TO.C,OLED1*%
X136112000Y-55638000D02*
X136112000Y-70116000D01*
X133064000Y-50562000D02*
X133064000Y-75320000D01*
X136112000Y-55638000D02*
X165068000Y-55638000D01*
X168116000Y-50560000D02*
X168116000Y-75318000D01*
X165068000Y-47512000D02*
X136112000Y-47512000D01*
X136112000Y-70116000D02*
X165068000Y-70116000D01*
X165068000Y-55638000D02*
X165068000Y-70116000D01*
X136112000Y-78368000D02*
X165068000Y-78368000D01*
X133064000Y-75320000D02*
G75*
G03*
X136112000Y-78368000I3048000J0D01*
G01*
X168116000Y-75318000D02*
G75*
G02*
X165070000Y-78368000I-3048000J-2000D01*
G01*
X133064000Y-50562000D02*
G75*
G02*
X136110000Y-47512000I3048000J2000D01*
G01*
X168116000Y-50560000D02*
G75*
G03*
X165068000Y-47512000I-3048000J0D01*
G01*
D11*
%TO.C,U1*%
X147700000Y-22650000D02*
X147700000Y-40430000D01*
X153899000Y5350000D02*
X153899000Y9672000D01*
X153899000Y5350000D02*
X159705000Y5350000D01*
X153899000Y9672000D02*
X159705000Y9672000D01*
X165700000Y-40430000D02*
X165700000Y-22650000D01*
X165700000Y-22650000D02*
X147700000Y-22650000D01*
X147700000Y-40430000D02*
X165700000Y-40430000D01*
X159705000Y9672000D02*
X159705000Y5350000D01*
D10*
%TO.C,NiHALL1*%
X138365000Y-6230000D02*
X140270000Y-6230000D01*
X140270000Y-6230000D02*
X140270000Y-13850000D01*
X140270000Y-13850000D02*
X137730000Y-13850000D01*
X137730000Y-13850000D02*
X137730000Y-6865000D01*
X137730000Y-6865000D02*
X138365000Y-6230000D01*
%TO.C,M1*%
X173730000Y-15115000D02*
X174365000Y-14480000D01*
X173730000Y-22100000D02*
X173730000Y-15115000D01*
X176270000Y-22100000D02*
X173730000Y-22100000D01*
X176270000Y-14480000D02*
X176270000Y-22100000D01*
X174365000Y-14480000D02*
X176270000Y-14480000D01*
%TO.C,BOTO2*%
X173480000Y-3365000D02*
X174115000Y-2730000D01*
X173480000Y-10350000D02*
X173480000Y-3365000D01*
X176020000Y-10350000D02*
X173480000Y-10350000D01*
X176020000Y-2730000D02*
X176020000Y-10350000D01*
X174115000Y-2730000D02*
X176020000Y-2730000D01*
%TO.C,BOTO1*%
X178980000Y-3365000D02*
X179615000Y-2730000D01*
X178980000Y-10350000D02*
X178980000Y-3365000D01*
X181520000Y-10350000D02*
X178980000Y-10350000D01*
X181520000Y-2730000D02*
X181520000Y-10350000D01*
X179615000Y-2730000D02*
X181520000Y-2730000D01*
%TD*%
%TO.C,U2*%
D12*
X196952380Y-44190476D02*
X195952380Y-44190476D01*
X195952380Y-43952380D01*
X196000000Y-43809523D01*
X196095238Y-43714285D01*
X196190476Y-43666666D01*
X196380952Y-43619047D01*
X196523809Y-43619047D01*
X196714285Y-43666666D01*
X196809523Y-43714285D01*
X196904761Y-43809523D01*
X196952380Y-43952380D01*
X196952380Y-44190476D01*
X196904761Y-43238095D02*
X196952380Y-43095238D01*
X196952380Y-42857142D01*
X196904761Y-42761904D01*
X196857142Y-42714285D01*
X196761904Y-42666666D01*
X196666666Y-42666666D01*
X196571428Y-42714285D01*
X196523809Y-42761904D01*
X196476190Y-42857142D01*
X196428571Y-43047619D01*
X196380952Y-43142857D01*
X196333333Y-43190476D01*
X196238095Y-43238095D01*
X196142857Y-43238095D01*
X196047619Y-43190476D01*
X196000000Y-43142857D01*
X195952380Y-43047619D01*
X195952380Y-42809523D01*
X196000000Y-42666666D01*
X195952380Y-42333333D02*
X195952380Y-41714285D01*
X196333333Y-42047619D01*
X196333333Y-41904761D01*
X196380952Y-41809523D01*
X196428571Y-41761904D01*
X196523809Y-41714285D01*
X196761904Y-41714285D01*
X196857142Y-41761904D01*
X196904761Y-41809523D01*
X196952380Y-41904761D01*
X196952380Y-42190476D01*
X196904761Y-42285714D01*
X196857142Y-42333333D01*
X196047619Y-41333333D02*
X196000000Y-41285714D01*
X195952380Y-41190476D01*
X195952380Y-40952380D01*
X196000000Y-40857142D01*
X196047619Y-40809523D01*
X196142857Y-40761904D01*
X196238095Y-40761904D01*
X196380952Y-40809523D01*
X196952380Y-41380952D01*
X196952380Y-40761904D01*
X195952380Y-40428571D02*
X195952380Y-39809523D01*
X196333333Y-40142857D01*
X196333333Y-40000000D01*
X196380952Y-39904761D01*
X196428571Y-39857142D01*
X196523809Y-39809523D01*
X196761904Y-39809523D01*
X196857142Y-39857142D01*
X196904761Y-39904761D01*
X196952380Y-40000000D01*
X196952380Y-40285714D01*
X196904761Y-40380952D01*
X196857142Y-40428571D01*
X196952380Y-38857142D02*
X196952380Y-39428571D01*
X196952380Y-39142857D02*
X195952380Y-39142857D01*
X196095238Y-39238095D01*
X196190476Y-39333333D01*
X196238095Y-39428571D01*
X196952380Y-38428571D02*
X195952380Y-38428571D01*
X196666666Y-38095238D01*
X195952380Y-37761904D01*
X196952380Y-37761904D01*
X195952380Y-37380952D02*
X195952380Y-36714285D01*
X196952380Y-37380952D01*
X196952380Y-36714285D01*
%TO.C,OLED1*%
X146261904Y-67607142D02*
X146214285Y-67654761D01*
X146071428Y-67702380D01*
X145976190Y-67702380D01*
X145833333Y-67654761D01*
X145738095Y-67559523D01*
X145690476Y-67464285D01*
X145642857Y-67273809D01*
X145642857Y-67130952D01*
X145690476Y-66940476D01*
X145738095Y-66845238D01*
X145833333Y-66750000D01*
X145976190Y-66702380D01*
X146071428Y-66702380D01*
X146214285Y-66750000D01*
X146261904Y-66797619D01*
X146833333Y-67702380D02*
X146738095Y-67654761D01*
X146690476Y-67607142D01*
X146642857Y-67511904D01*
X146642857Y-67226190D01*
X146690476Y-67130952D01*
X146738095Y-67083333D01*
X146833333Y-67035714D01*
X146976190Y-67035714D01*
X147071428Y-67083333D01*
X147119047Y-67130952D01*
X147166666Y-67226190D01*
X147166666Y-67511904D01*
X147119047Y-67607142D01*
X147071428Y-67654761D01*
X146976190Y-67702380D01*
X146833333Y-67702380D01*
X147595238Y-67035714D02*
X147595238Y-67702380D01*
X147595238Y-67130952D02*
X147642857Y-67083333D01*
X147738095Y-67035714D01*
X147880952Y-67035714D01*
X147976190Y-67083333D01*
X148023809Y-67178571D01*
X148023809Y-67702380D01*
X148500000Y-67035714D02*
X148500000Y-67702380D01*
X148500000Y-67130952D02*
X148547619Y-67083333D01*
X148642857Y-67035714D01*
X148785714Y-67035714D01*
X148880952Y-67083333D01*
X148928571Y-67178571D01*
X148928571Y-67702380D01*
X149166666Y-67797619D02*
X149928571Y-67797619D01*
X150357142Y-66702380D02*
X150452380Y-66702380D01*
X150547619Y-66750000D01*
X150595238Y-66797619D01*
X150642857Y-66892857D01*
X150690476Y-67083333D01*
X150690476Y-67321428D01*
X150642857Y-67511904D01*
X150595238Y-67607142D01*
X150547619Y-67654761D01*
X150452380Y-67702380D01*
X150357142Y-67702380D01*
X150261904Y-67654761D01*
X150214285Y-67607142D01*
X150166666Y-67511904D01*
X150119047Y-67321428D01*
X150119047Y-67083333D01*
X150166666Y-66892857D01*
X150214285Y-66797619D01*
X150261904Y-66750000D01*
X150357142Y-66702380D01*
X151642857Y-67702380D02*
X151071428Y-67702380D01*
X151357142Y-67702380D02*
X151357142Y-66702380D01*
X151261904Y-66845238D01*
X151166666Y-66940476D01*
X151071428Y-66988095D01*
X151976190Y-67702380D02*
X152500000Y-67035714D01*
X151976190Y-67035714D02*
X152500000Y-67702380D01*
X153071428Y-66702380D02*
X153166666Y-66702380D01*
X153261904Y-66750000D01*
X153309523Y-66797619D01*
X153357142Y-66892857D01*
X153404761Y-67083333D01*
X153404761Y-67321428D01*
X153357142Y-67511904D01*
X153309523Y-67607142D01*
X153261904Y-67654761D01*
X153166666Y-67702380D01*
X153071428Y-67702380D01*
X152976190Y-67654761D01*
X152928571Y-67607142D01*
X152880952Y-67511904D01*
X152833333Y-67321428D01*
X152833333Y-67083333D01*
X152880952Y-66892857D01*
X152928571Y-66797619D01*
X152976190Y-66750000D01*
X153071428Y-66702380D01*
X153976190Y-67130952D02*
X153880952Y-67083333D01*
X153833333Y-67035714D01*
X153785714Y-66940476D01*
X153785714Y-66892857D01*
X153833333Y-66797619D01*
X153880952Y-66750000D01*
X153976190Y-66702380D01*
X154166666Y-66702380D01*
X154261904Y-66750000D01*
X154309523Y-66797619D01*
X154357142Y-66892857D01*
X154357142Y-66940476D01*
X154309523Y-67035714D01*
X154261904Y-67083333D01*
X154166666Y-67130952D01*
X153976190Y-67130952D01*
X153880952Y-67178571D01*
X153833333Y-67226190D01*
X153785714Y-67321428D01*
X153785714Y-67511904D01*
X153833333Y-67607142D01*
X153880952Y-67654761D01*
X153976190Y-67702380D01*
X154166666Y-67702380D01*
X154261904Y-67654761D01*
X154309523Y-67607142D01*
X154357142Y-67511904D01*
X154357142Y-67321428D01*
X154309523Y-67226190D01*
X154261904Y-67178571D01*
X154166666Y-67130952D01*
%TO.C,U1*%
X153152380Y-32102380D02*
X152676190Y-32102380D01*
X152676190Y-31102380D01*
X153628571Y-32102380D02*
X153533333Y-32054761D01*
X153485714Y-32007142D01*
X153438095Y-31911904D01*
X153438095Y-31626190D01*
X153485714Y-31530952D01*
X153533333Y-31483333D01*
X153628571Y-31435714D01*
X153771428Y-31435714D01*
X153866666Y-31483333D01*
X153914285Y-31530952D01*
X153961904Y-31626190D01*
X153961904Y-31911904D01*
X153914285Y-32007142D01*
X153866666Y-32054761D01*
X153771428Y-32102380D01*
X153628571Y-32102380D01*
X154961904Y-32102380D02*
X154628571Y-31626190D01*
X154390476Y-32102380D02*
X154390476Y-31102380D01*
X154771428Y-31102380D01*
X154866666Y-31150000D01*
X154914285Y-31197619D01*
X154961904Y-31292857D01*
X154961904Y-31435714D01*
X154914285Y-31530952D01*
X154866666Y-31578571D01*
X154771428Y-31626190D01*
X154390476Y-31626190D01*
X155819047Y-32102380D02*
X155819047Y-31578571D01*
X155771428Y-31483333D01*
X155676190Y-31435714D01*
X155485714Y-31435714D01*
X155390476Y-31483333D01*
X155819047Y-32054761D02*
X155723809Y-32102380D01*
X155485714Y-32102380D01*
X155390476Y-32054761D01*
X155342857Y-31959523D01*
X155342857Y-31864285D01*
X155390476Y-31769047D01*
X155485714Y-31721428D01*
X155723809Y-31721428D01*
X155819047Y-31673809D01*
X156200000Y-31102380D02*
X156819047Y-31102380D01*
X156485714Y-31483333D01*
X156628571Y-31483333D01*
X156723809Y-31530952D01*
X156771428Y-31578571D01*
X156819047Y-31673809D01*
X156819047Y-31911904D01*
X156771428Y-32007142D01*
X156723809Y-32054761D01*
X156628571Y-32102380D01*
X156342857Y-32102380D01*
X156247619Y-32054761D01*
X156200000Y-32007142D01*
X157200000Y-31197619D02*
X157247619Y-31150000D01*
X157342857Y-31102380D01*
X157580952Y-31102380D01*
X157676190Y-31150000D01*
X157723809Y-31197619D01*
X157771428Y-31292857D01*
X157771428Y-31388095D01*
X157723809Y-31530952D01*
X157152380Y-32102380D01*
X157771428Y-32102380D01*
X158200000Y-31102380D02*
X158200000Y-31911904D01*
X158247619Y-32007142D01*
X158295238Y-32054761D01*
X158390476Y-32102380D01*
X158580952Y-32102380D01*
X158676190Y-32054761D01*
X158723809Y-32007142D01*
X158771428Y-31911904D01*
X158771428Y-31102380D01*
X159676190Y-31435714D02*
X159676190Y-32102380D01*
X159438095Y-31054761D02*
X159200000Y-31769047D01*
X159819047Y-31769047D01*
%TO.C,NiHALL1*%
X135261904Y-15267142D02*
X135214285Y-15314761D01*
X135071428Y-15362380D01*
X134976190Y-15362380D01*
X134833333Y-15314761D01*
X134738095Y-15219523D01*
X134690476Y-15124285D01*
X134642857Y-14933809D01*
X134642857Y-14790952D01*
X134690476Y-14600476D01*
X134738095Y-14505238D01*
X134833333Y-14410000D01*
X134976190Y-14362380D01*
X135071428Y-14362380D01*
X135214285Y-14410000D01*
X135261904Y-14457619D01*
X135833333Y-15362380D02*
X135738095Y-15314761D01*
X135690476Y-15267142D01*
X135642857Y-15171904D01*
X135642857Y-14886190D01*
X135690476Y-14790952D01*
X135738095Y-14743333D01*
X135833333Y-14695714D01*
X135976190Y-14695714D01*
X136071428Y-14743333D01*
X136119047Y-14790952D01*
X136166666Y-14886190D01*
X136166666Y-15171904D01*
X136119047Y-15267142D01*
X136071428Y-15314761D01*
X135976190Y-15362380D01*
X135833333Y-15362380D01*
X136595238Y-14695714D02*
X136595238Y-15362380D01*
X136595238Y-14790952D02*
X136642857Y-14743333D01*
X136738095Y-14695714D01*
X136880952Y-14695714D01*
X136976190Y-14743333D01*
X137023809Y-14838571D01*
X137023809Y-15362380D01*
X137500000Y-14695714D02*
X137500000Y-15362380D01*
X137500000Y-14790952D02*
X137547619Y-14743333D01*
X137642857Y-14695714D01*
X137785714Y-14695714D01*
X137880952Y-14743333D01*
X137928571Y-14838571D01*
X137928571Y-15362380D01*
X138166666Y-15457619D02*
X138928571Y-15457619D01*
X139357142Y-14362380D02*
X139452380Y-14362380D01*
X139547619Y-14410000D01*
X139595238Y-14457619D01*
X139642857Y-14552857D01*
X139690476Y-14743333D01*
X139690476Y-14981428D01*
X139642857Y-15171904D01*
X139595238Y-15267142D01*
X139547619Y-15314761D01*
X139452380Y-15362380D01*
X139357142Y-15362380D01*
X139261904Y-15314761D01*
X139214285Y-15267142D01*
X139166666Y-15171904D01*
X139119047Y-14981428D01*
X139119047Y-14743333D01*
X139166666Y-14552857D01*
X139214285Y-14457619D01*
X139261904Y-14410000D01*
X139357142Y-14362380D01*
X140642857Y-15362380D02*
X140071428Y-15362380D01*
X140357142Y-15362380D02*
X140357142Y-14362380D01*
X140261904Y-14505238D01*
X140166666Y-14600476D01*
X140071428Y-14648095D01*
X140976190Y-15362380D02*
X141500000Y-14695714D01*
X140976190Y-14695714D02*
X141500000Y-15362380D01*
X142071428Y-14362380D02*
X142166666Y-14362380D01*
X142261904Y-14410000D01*
X142309523Y-14457619D01*
X142357142Y-14552857D01*
X142404761Y-14743333D01*
X142404761Y-14981428D01*
X142357142Y-15171904D01*
X142309523Y-15267142D01*
X142261904Y-15314761D01*
X142166666Y-15362380D01*
X142071428Y-15362380D01*
X141976190Y-15314761D01*
X141928571Y-15267142D01*
X141880952Y-15171904D01*
X141833333Y-14981428D01*
X141833333Y-14743333D01*
X141880952Y-14552857D01*
X141928571Y-14457619D01*
X141976190Y-14410000D01*
X142071428Y-14362380D01*
X142738095Y-14362380D02*
X143357142Y-14362380D01*
X143023809Y-14743333D01*
X143166666Y-14743333D01*
X143261904Y-14790952D01*
X143309523Y-14838571D01*
X143357142Y-14933809D01*
X143357142Y-15171904D01*
X143309523Y-15267142D01*
X143261904Y-15314761D01*
X143166666Y-15362380D01*
X142880952Y-15362380D01*
X142785714Y-15314761D01*
X142738095Y-15267142D01*
X139452380Y-12801904D02*
X138452380Y-12801904D01*
X139452380Y-12230476D01*
X138452380Y-12230476D01*
X139452380Y-11754285D02*
X138785714Y-11754285D01*
X138452380Y-11754285D02*
X138500000Y-11801904D01*
X138547619Y-11754285D01*
X138500000Y-11706666D01*
X138452380Y-11754285D01*
X138547619Y-11754285D01*
X139452380Y-11278095D02*
X138452380Y-11278095D01*
X138928571Y-11278095D02*
X138928571Y-10706666D01*
X139452380Y-10706666D02*
X138452380Y-10706666D01*
X139166666Y-10278095D02*
X139166666Y-9801904D01*
X139452380Y-10373333D02*
X138452380Y-10040000D01*
X139452380Y-9706666D01*
X139452380Y-8897142D02*
X139452380Y-9373333D01*
X138452380Y-9373333D01*
X139452380Y-8087619D02*
X139452380Y-8563809D01*
X138452380Y-8563809D01*
X139452380Y-7230476D02*
X139452380Y-7801904D01*
X139452380Y-7516190D02*
X138452380Y-7516190D01*
X138595238Y-7611428D01*
X138690476Y-7706666D01*
X138738095Y-7801904D01*
%TO.C,M1*%
X170738095Y-23612380D02*
X170738095Y-22612380D01*
X171071428Y-23326666D01*
X171404761Y-22612380D01*
X171404761Y-23612380D01*
X172023809Y-23612380D02*
X171928571Y-23564761D01*
X171880952Y-23517142D01*
X171833333Y-23421904D01*
X171833333Y-23136190D01*
X171880952Y-23040952D01*
X171928571Y-22993333D01*
X172023809Y-22945714D01*
X172166666Y-22945714D01*
X172261904Y-22993333D01*
X172309523Y-23040952D01*
X172357142Y-23136190D01*
X172357142Y-23421904D01*
X172309523Y-23517142D01*
X172261904Y-23564761D01*
X172166666Y-23612380D01*
X172023809Y-23612380D01*
X172642857Y-22945714D02*
X173023809Y-22945714D01*
X172785714Y-22612380D02*
X172785714Y-23469523D01*
X172833333Y-23564761D01*
X172928571Y-23612380D01*
X173023809Y-23612380D01*
X173500000Y-23612380D02*
X173404761Y-23564761D01*
X173357142Y-23517142D01*
X173309523Y-23421904D01*
X173309523Y-23136190D01*
X173357142Y-23040952D01*
X173404761Y-22993333D01*
X173500000Y-22945714D01*
X173642857Y-22945714D01*
X173738095Y-22993333D01*
X173785714Y-23040952D01*
X173833333Y-23136190D01*
X173833333Y-23421904D01*
X173785714Y-23517142D01*
X173738095Y-23564761D01*
X173642857Y-23612380D01*
X173500000Y-23612380D01*
X174261904Y-23612380D02*
X174261904Y-22945714D01*
X174261904Y-23136190D02*
X174309523Y-23040952D01*
X174357142Y-22993333D01*
X174452380Y-22945714D01*
X174547619Y-22945714D01*
X174642857Y-23707619D02*
X175404761Y-23707619D01*
X175595238Y-23564761D02*
X175738095Y-23612380D01*
X175976190Y-23612380D01*
X176071428Y-23564761D01*
X176119047Y-23517142D01*
X176166666Y-23421904D01*
X176166666Y-23326666D01*
X176119047Y-23231428D01*
X176071428Y-23183809D01*
X175976190Y-23136190D01*
X175785714Y-23088571D01*
X175690476Y-23040952D01*
X175642857Y-22993333D01*
X175595238Y-22898095D01*
X175595238Y-22802857D01*
X175642857Y-22707619D01*
X175690476Y-22660000D01*
X175785714Y-22612380D01*
X176023809Y-22612380D01*
X176166666Y-22660000D01*
X176976190Y-23564761D02*
X176880952Y-23612380D01*
X176690476Y-23612380D01*
X176595238Y-23564761D01*
X176547619Y-23469523D01*
X176547619Y-23088571D01*
X176595238Y-22993333D01*
X176690476Y-22945714D01*
X176880952Y-22945714D01*
X176976190Y-22993333D01*
X177023809Y-23088571D01*
X177023809Y-23183809D01*
X176547619Y-23279047D01*
X177452380Y-23612380D02*
X177452380Y-22945714D01*
X177452380Y-23136190D02*
X177500000Y-23040952D01*
X177547619Y-22993333D01*
X177642857Y-22945714D01*
X177738095Y-22945714D01*
X177976190Y-22945714D02*
X178214285Y-23612380D01*
X178452380Y-22945714D01*
X178976190Y-23612380D02*
X178880952Y-23564761D01*
X178833333Y-23517142D01*
X178785714Y-23421904D01*
X178785714Y-23136190D01*
X178833333Y-23040952D01*
X178880952Y-22993333D01*
X178976190Y-22945714D01*
X179119047Y-22945714D01*
X179214285Y-22993333D01*
X179261904Y-23040952D01*
X179309523Y-23136190D01*
X179309523Y-23421904D01*
X179261904Y-23517142D01*
X179214285Y-23564761D01*
X179119047Y-23612380D01*
X178976190Y-23612380D01*
X175452380Y-19099523D02*
X174452380Y-19099523D01*
X175166666Y-18766190D01*
X174452380Y-18432857D01*
X175452380Y-18432857D01*
X175452380Y-17432857D02*
X175452380Y-18004285D01*
X175452380Y-17718571D02*
X174452380Y-17718571D01*
X174595238Y-17813809D01*
X174690476Y-17909047D01*
X174738095Y-18004285D01*
%TO.C,BOTO2*%
X171011904Y-11767142D02*
X170964285Y-11814761D01*
X170821428Y-11862380D01*
X170726190Y-11862380D01*
X170583333Y-11814761D01*
X170488095Y-11719523D01*
X170440476Y-11624285D01*
X170392857Y-11433809D01*
X170392857Y-11290952D01*
X170440476Y-11100476D01*
X170488095Y-11005238D01*
X170583333Y-10910000D01*
X170726190Y-10862380D01*
X170821428Y-10862380D01*
X170964285Y-10910000D01*
X171011904Y-10957619D01*
X171583333Y-11862380D02*
X171488095Y-11814761D01*
X171440476Y-11767142D01*
X171392857Y-11671904D01*
X171392857Y-11386190D01*
X171440476Y-11290952D01*
X171488095Y-11243333D01*
X171583333Y-11195714D01*
X171726190Y-11195714D01*
X171821428Y-11243333D01*
X171869047Y-11290952D01*
X171916666Y-11386190D01*
X171916666Y-11671904D01*
X171869047Y-11767142D01*
X171821428Y-11814761D01*
X171726190Y-11862380D01*
X171583333Y-11862380D01*
X172345238Y-11195714D02*
X172345238Y-11862380D01*
X172345238Y-11290952D02*
X172392857Y-11243333D01*
X172488095Y-11195714D01*
X172630952Y-11195714D01*
X172726190Y-11243333D01*
X172773809Y-11338571D01*
X172773809Y-11862380D01*
X173250000Y-11195714D02*
X173250000Y-11862380D01*
X173250000Y-11290952D02*
X173297619Y-11243333D01*
X173392857Y-11195714D01*
X173535714Y-11195714D01*
X173630952Y-11243333D01*
X173678571Y-11338571D01*
X173678571Y-11862380D01*
X173916666Y-11957619D02*
X174678571Y-11957619D01*
X175107142Y-10862380D02*
X175202380Y-10862380D01*
X175297619Y-10910000D01*
X175345238Y-10957619D01*
X175392857Y-11052857D01*
X175440476Y-11243333D01*
X175440476Y-11481428D01*
X175392857Y-11671904D01*
X175345238Y-11767142D01*
X175297619Y-11814761D01*
X175202380Y-11862380D01*
X175107142Y-11862380D01*
X175011904Y-11814761D01*
X174964285Y-11767142D01*
X174916666Y-11671904D01*
X174869047Y-11481428D01*
X174869047Y-11243333D01*
X174916666Y-11052857D01*
X174964285Y-10957619D01*
X175011904Y-10910000D01*
X175107142Y-10862380D01*
X176392857Y-11862380D02*
X175821428Y-11862380D01*
X176107142Y-11862380D02*
X176107142Y-10862380D01*
X176011904Y-11005238D01*
X175916666Y-11100476D01*
X175821428Y-11148095D01*
X176726190Y-11862380D02*
X177250000Y-11195714D01*
X176726190Y-11195714D02*
X177250000Y-11862380D01*
X177821428Y-10862380D02*
X177916666Y-10862380D01*
X178011904Y-10910000D01*
X178059523Y-10957619D01*
X178107142Y-11052857D01*
X178154761Y-11243333D01*
X178154761Y-11481428D01*
X178107142Y-11671904D01*
X178059523Y-11767142D01*
X178011904Y-11814761D01*
X177916666Y-11862380D01*
X177821428Y-11862380D01*
X177726190Y-11814761D01*
X177678571Y-11767142D01*
X177630952Y-11671904D01*
X177583333Y-11481428D01*
X177583333Y-11243333D01*
X177630952Y-11052857D01*
X177678571Y-10957619D01*
X177726190Y-10910000D01*
X177821428Y-10862380D01*
X178488095Y-10862380D02*
X179107142Y-10862380D01*
X178773809Y-11243333D01*
X178916666Y-11243333D01*
X179011904Y-11290952D01*
X179059523Y-11338571D01*
X179107142Y-11433809D01*
X179107142Y-11671904D01*
X179059523Y-11767142D01*
X179011904Y-11814761D01*
X178916666Y-11862380D01*
X178630952Y-11862380D01*
X178535714Y-11814761D01*
X178488095Y-11767142D01*
X174678571Y-8373333D02*
X174726190Y-8230476D01*
X174773809Y-8182857D01*
X174869047Y-8135238D01*
X175011904Y-8135238D01*
X175107142Y-8182857D01*
X175154761Y-8230476D01*
X175202380Y-8325714D01*
X175202380Y-8706666D01*
X174202380Y-8706666D01*
X174202380Y-8373333D01*
X174250000Y-8278095D01*
X174297619Y-8230476D01*
X174392857Y-8182857D01*
X174488095Y-8182857D01*
X174583333Y-8230476D01*
X174630952Y-8278095D01*
X174678571Y-8373333D01*
X174678571Y-8706666D01*
X174202380Y-7516190D02*
X174202380Y-7325714D01*
X174250000Y-7230476D01*
X174345238Y-7135238D01*
X174535714Y-7087619D01*
X174869047Y-7087619D01*
X175059523Y-7135238D01*
X175154761Y-7230476D01*
X175202380Y-7325714D01*
X175202380Y-7516190D01*
X175154761Y-7611428D01*
X175059523Y-7706666D01*
X174869047Y-7754285D01*
X174535714Y-7754285D01*
X174345238Y-7706666D01*
X174250000Y-7611428D01*
X174202380Y-7516190D01*
X174202380Y-6801904D02*
X174202380Y-6230476D01*
X175202380Y-6516190D02*
X174202380Y-6516190D01*
X174202380Y-5706666D02*
X174202380Y-5516190D01*
X174250000Y-5420952D01*
X174345238Y-5325714D01*
X174535714Y-5278095D01*
X174869047Y-5278095D01*
X175059523Y-5325714D01*
X175154761Y-5420952D01*
X175202380Y-5516190D01*
X175202380Y-5706666D01*
X175154761Y-5801904D01*
X175059523Y-5897142D01*
X174869047Y-5944761D01*
X174535714Y-5944761D01*
X174345238Y-5897142D01*
X174250000Y-5801904D01*
X174202380Y-5706666D01*
X174297619Y-4897142D02*
X174250000Y-4849523D01*
X174202380Y-4754285D01*
X174202380Y-4516190D01*
X174250000Y-4420952D01*
X174297619Y-4373333D01*
X174392857Y-4325714D01*
X174488095Y-4325714D01*
X174630952Y-4373333D01*
X175202380Y-4944761D01*
X175202380Y-4325714D01*
%TO.C,BOTO1*%
X176511904Y-11767142D02*
X176464285Y-11814761D01*
X176321428Y-11862380D01*
X176226190Y-11862380D01*
X176083333Y-11814761D01*
X175988095Y-11719523D01*
X175940476Y-11624285D01*
X175892857Y-11433809D01*
X175892857Y-11290952D01*
X175940476Y-11100476D01*
X175988095Y-11005238D01*
X176083333Y-10910000D01*
X176226190Y-10862380D01*
X176321428Y-10862380D01*
X176464285Y-10910000D01*
X176511904Y-10957619D01*
X177083333Y-11862380D02*
X176988095Y-11814761D01*
X176940476Y-11767142D01*
X176892857Y-11671904D01*
X176892857Y-11386190D01*
X176940476Y-11290952D01*
X176988095Y-11243333D01*
X177083333Y-11195714D01*
X177226190Y-11195714D01*
X177321428Y-11243333D01*
X177369047Y-11290952D01*
X177416666Y-11386190D01*
X177416666Y-11671904D01*
X177369047Y-11767142D01*
X177321428Y-11814761D01*
X177226190Y-11862380D01*
X177083333Y-11862380D01*
X177845238Y-11195714D02*
X177845238Y-11862380D01*
X177845238Y-11290952D02*
X177892857Y-11243333D01*
X177988095Y-11195714D01*
X178130952Y-11195714D01*
X178226190Y-11243333D01*
X178273809Y-11338571D01*
X178273809Y-11862380D01*
X178750000Y-11195714D02*
X178750000Y-11862380D01*
X178750000Y-11290952D02*
X178797619Y-11243333D01*
X178892857Y-11195714D01*
X179035714Y-11195714D01*
X179130952Y-11243333D01*
X179178571Y-11338571D01*
X179178571Y-11862380D01*
X179416666Y-11957619D02*
X180178571Y-11957619D01*
X180607142Y-10862380D02*
X180702380Y-10862380D01*
X180797619Y-10910000D01*
X180845238Y-10957619D01*
X180892857Y-11052857D01*
X180940476Y-11243333D01*
X180940476Y-11481428D01*
X180892857Y-11671904D01*
X180845238Y-11767142D01*
X180797619Y-11814761D01*
X180702380Y-11862380D01*
X180607142Y-11862380D01*
X180511904Y-11814761D01*
X180464285Y-11767142D01*
X180416666Y-11671904D01*
X180369047Y-11481428D01*
X180369047Y-11243333D01*
X180416666Y-11052857D01*
X180464285Y-10957619D01*
X180511904Y-10910000D01*
X180607142Y-10862380D01*
X181892857Y-11862380D02*
X181321428Y-11862380D01*
X181607142Y-11862380D02*
X181607142Y-10862380D01*
X181511904Y-11005238D01*
X181416666Y-11100476D01*
X181321428Y-11148095D01*
X182226190Y-11862380D02*
X182750000Y-11195714D01*
X182226190Y-11195714D02*
X182750000Y-11862380D01*
X183321428Y-10862380D02*
X183416666Y-10862380D01*
X183511904Y-10910000D01*
X183559523Y-10957619D01*
X183607142Y-11052857D01*
X183654761Y-11243333D01*
X183654761Y-11481428D01*
X183607142Y-11671904D01*
X183559523Y-11767142D01*
X183511904Y-11814761D01*
X183416666Y-11862380D01*
X183321428Y-11862380D01*
X183226190Y-11814761D01*
X183178571Y-11767142D01*
X183130952Y-11671904D01*
X183083333Y-11481428D01*
X183083333Y-11243333D01*
X183130952Y-11052857D01*
X183178571Y-10957619D01*
X183226190Y-10910000D01*
X183321428Y-10862380D01*
X183988095Y-10862380D02*
X184607142Y-10862380D01*
X184273809Y-11243333D01*
X184416666Y-11243333D01*
X184511904Y-11290952D01*
X184559523Y-11338571D01*
X184607142Y-11433809D01*
X184607142Y-11671904D01*
X184559523Y-11767142D01*
X184511904Y-11814761D01*
X184416666Y-11862380D01*
X184130952Y-11862380D01*
X184035714Y-11814761D01*
X183988095Y-11767142D01*
X180178571Y-8373333D02*
X180226190Y-8230476D01*
X180273809Y-8182857D01*
X180369047Y-8135238D01*
X180511904Y-8135238D01*
X180607142Y-8182857D01*
X180654761Y-8230476D01*
X180702380Y-8325714D01*
X180702380Y-8706666D01*
X179702380Y-8706666D01*
X179702380Y-8373333D01*
X179750000Y-8278095D01*
X179797619Y-8230476D01*
X179892857Y-8182857D01*
X179988095Y-8182857D01*
X180083333Y-8230476D01*
X180130952Y-8278095D01*
X180178571Y-8373333D01*
X180178571Y-8706666D01*
X179702380Y-7516190D02*
X179702380Y-7325714D01*
X179750000Y-7230476D01*
X179845238Y-7135238D01*
X180035714Y-7087619D01*
X180369047Y-7087619D01*
X180559523Y-7135238D01*
X180654761Y-7230476D01*
X180702380Y-7325714D01*
X180702380Y-7516190D01*
X180654761Y-7611428D01*
X180559523Y-7706666D01*
X180369047Y-7754285D01*
X180035714Y-7754285D01*
X179845238Y-7706666D01*
X179750000Y-7611428D01*
X179702380Y-7516190D01*
X179702380Y-6801904D02*
X179702380Y-6230476D01*
X180702380Y-6516190D02*
X179702380Y-6516190D01*
X179702380Y-5706666D02*
X179702380Y-5516190D01*
X179750000Y-5420952D01*
X179845238Y-5325714D01*
X180035714Y-5278095D01*
X180369047Y-5278095D01*
X180559523Y-5325714D01*
X180654761Y-5420952D01*
X180702380Y-5516190D01*
X180702380Y-5706666D01*
X180654761Y-5801904D01*
X180559523Y-5897142D01*
X180369047Y-5944761D01*
X180035714Y-5944761D01*
X179845238Y-5897142D01*
X179750000Y-5801904D01*
X179702380Y-5706666D01*
X180702380Y-4325714D02*
X180702380Y-4897142D01*
X180702380Y-4611428D02*
X179702380Y-4611428D01*
X179845238Y-4706666D01*
X179940476Y-4801904D01*
X179988095Y-4897142D01*
%TD*%
M02*
