%TF.GenerationSoftware,KiCad,Pcbnew,(5.1.12)-1*%
%TF.CreationDate,2023-09-12T13:48:20-05:00*%
%TF.ProjectId,Dispen2,44697370-656e-4322-9e6b-696361645f70,rev?*%
%TF.SameCoordinates,Original*%
%TF.FileFunction,AssemblyDrawing,Top*%
%FSLAX46Y46*%
G04 Gerber Fmt 4.6, Leading zero omitted, Abs format (unit mm)*
G04 Created by KiCad (PCBNEW (5.1.12)-1) date 2023-09-12 13:48:20*
%MOMM*%
%LPD*%
G01*
G04 APERTURE LIST*
%ADD10C,0.100000*%
%ADD11C,0.200000*%
%ADD12C,0.150000*%
G04 APERTURE END LIST*
D10*
%TO.C,U4*%
X205460000Y-9020000D02*
X205460000Y-4620000D01*
X205460000Y-4620000D02*
X195460000Y-4620000D01*
X195460000Y-4620000D02*
X195460000Y-9020000D01*
X195460000Y-9020000D02*
X205460000Y-9020000D01*
X205460000Y-7750000D02*
X195460000Y-7750000D01*
X202310000Y-9020000D02*
X202310000Y-7750000D01*
X198610000Y-9020000D02*
X198610000Y-7750000D01*
%TO.C,U3*%
X195530000Y-15260000D02*
X195530000Y-19660000D01*
X195530000Y-19660000D02*
X205530000Y-19660000D01*
X205530000Y-19660000D02*
X205530000Y-15260000D01*
X205530000Y-15260000D02*
X195530000Y-15260000D01*
X195530000Y-16530000D02*
X205530000Y-16530000D01*
X198680000Y-15260000D02*
X198680000Y-16530000D01*
X202380000Y-15260000D02*
X202380000Y-16530000D01*
%TO.C,J1*%
X204280000Y4940000D02*
G75*
G03*
X204280000Y4940000I-1500000J0D01*
G01*
X199280000Y4940000D02*
G75*
G03*
X199280000Y4940000I-1500000J0D01*
G01*
X205280000Y-260000D02*
X195280000Y-260000D01*
X195280000Y-260000D02*
X195280000Y9540000D01*
X195280000Y9540000D02*
X204780000Y9540000D01*
X204780000Y9540000D02*
X205280000Y9040000D01*
X205280000Y9040000D02*
X205280000Y-260000D01*
X205280000Y9040000D02*
X195280000Y9040000D01*
X205280000Y7540000D02*
X195280000Y7540000D01*
X205280000Y2640000D02*
X195280000Y2640000D01*
X201642000Y3985000D02*
X203735000Y6078000D01*
X201825000Y3802000D02*
X203918000Y5895000D01*
X196642000Y3985000D02*
X198734000Y6078000D01*
X196825000Y3802000D02*
X198917000Y5895000D01*
%TO.C,NiHALL1*%
X141330000Y-6865000D02*
X141965000Y-6230000D01*
X141330000Y-13850000D02*
X141330000Y-6865000D01*
X143870000Y-13850000D02*
X141330000Y-13850000D01*
X143870000Y-6230000D02*
X143870000Y-13850000D01*
X141965000Y-6230000D02*
X143870000Y-6230000D01*
D11*
%TO.C,U1*%
X163705000Y9722000D02*
X163705000Y5400000D01*
X151700000Y-40380000D02*
X169700000Y-40380000D01*
X169700000Y-22600000D02*
X151700000Y-22600000D01*
X169700000Y-40380000D02*
X169700000Y-22600000D01*
X157899000Y9722000D02*
X163705000Y9722000D01*
X157899000Y5400000D02*
X163705000Y5400000D01*
X157899000Y5400000D02*
X157899000Y9722000D01*
X151700000Y-22600000D02*
X151700000Y-40380000D01*
D10*
%TO.C,D1*%
X145960000Y-19600000D02*
G75*
G03*
X145960000Y-19600000I-1350000J0D01*
G01*
X140800000Y-19600000D02*
X144610000Y-19600000D01*
%TO.C,BOTO1*%
X183165000Y-2730000D02*
X185070000Y-2730000D01*
X185070000Y-2730000D02*
X185070000Y-10350000D01*
X185070000Y-10350000D02*
X182530000Y-10350000D01*
X182530000Y-10350000D02*
X182530000Y-3365000D01*
X182530000Y-3365000D02*
X183165000Y-2730000D01*
%TO.C,U2*%
X195100000Y-79040000D02*
X179860000Y-79040000D01*
X195100000Y-77135000D02*
X195100000Y-79040000D01*
X179860000Y-79040000D02*
X179860000Y-76500000D01*
X194465000Y-76500000D02*
X195100000Y-77135000D01*
X179860000Y-76500000D02*
X194465000Y-76500000D01*
X182410000Y-43100000D02*
X182410000Y-40560000D01*
X192570000Y-43100000D02*
X182410000Y-43100000D01*
X192570000Y-41195000D02*
X192570000Y-43100000D01*
X191935000Y-40560000D02*
X192570000Y-41195000D01*
X182410000Y-40560000D02*
X191935000Y-40560000D01*
%TO.C,OLED1*%
X139712000Y-78368000D02*
X168668000Y-78368000D01*
X168668000Y-55638000D02*
X168668000Y-70116000D01*
X139712000Y-70116000D02*
X168668000Y-70116000D01*
X168668000Y-47512000D02*
X139712000Y-47512000D01*
X171716000Y-50560000D02*
X171716000Y-75318000D01*
X139712000Y-55638000D02*
X168668000Y-55638000D01*
X136664000Y-50562000D02*
X136664000Y-75320000D01*
X139712000Y-55638000D02*
X139712000Y-70116000D01*
X136664000Y-75320000D02*
G75*
G03*
X139712000Y-78368000I3048000J0D01*
G01*
X171716000Y-75318000D02*
G75*
G02*
X168670000Y-78368000I-3048000J-2000D01*
G01*
X136664000Y-50562000D02*
G75*
G02*
X139710000Y-47512000I3048000J2000D01*
G01*
X171716000Y-50560000D02*
G75*
G03*
X168668000Y-47512000I-3048000J0D01*
G01*
%TO.C,M1*%
X177330000Y-15115000D02*
X177965000Y-14480000D01*
X177330000Y-22100000D02*
X177330000Y-15115000D01*
X179870000Y-22100000D02*
X177330000Y-22100000D01*
X179870000Y-14480000D02*
X179870000Y-22100000D01*
X177965000Y-14480000D02*
X179870000Y-14480000D01*
%TO.C,BOTO2*%
X177715000Y-2730000D02*
X179620000Y-2730000D01*
X179620000Y-2730000D02*
X179620000Y-10350000D01*
X179620000Y-10350000D02*
X177080000Y-10350000D01*
X177080000Y-10350000D02*
X177080000Y-3365000D01*
X177080000Y-3365000D02*
X177715000Y-2730000D01*
%TD*%
%TO.C,U4*%
D12*
X195579047Y-3822380D02*
X195102857Y-3822380D01*
X195102857Y-2822380D01*
X195912380Y-3822380D02*
X195912380Y-2822380D01*
X196245714Y-3536666D01*
X196579047Y-2822380D01*
X196579047Y-3822380D01*
X196960000Y-2822380D02*
X197626666Y-2822380D01*
X197198095Y-3822380D01*
X198150476Y-3250952D02*
X198055238Y-3203333D01*
X198007619Y-3155714D01*
X197960000Y-3060476D01*
X197960000Y-3012857D01*
X198007619Y-2917619D01*
X198055238Y-2870000D01*
X198150476Y-2822380D01*
X198340952Y-2822380D01*
X198436190Y-2870000D01*
X198483809Y-2917619D01*
X198531428Y-3012857D01*
X198531428Y-3060476D01*
X198483809Y-3155714D01*
X198436190Y-3203333D01*
X198340952Y-3250952D01*
X198150476Y-3250952D01*
X198055238Y-3298571D01*
X198007619Y-3346190D01*
X197960000Y-3441428D01*
X197960000Y-3631904D01*
X198007619Y-3727142D01*
X198055238Y-3774761D01*
X198150476Y-3822380D01*
X198340952Y-3822380D01*
X198436190Y-3774761D01*
X198483809Y-3727142D01*
X198531428Y-3631904D01*
X198531428Y-3441428D01*
X198483809Y-3346190D01*
X198436190Y-3298571D01*
X198340952Y-3250952D01*
X199150476Y-2822380D02*
X199245714Y-2822380D01*
X199340952Y-2870000D01*
X199388571Y-2917619D01*
X199436190Y-3012857D01*
X199483809Y-3203333D01*
X199483809Y-3441428D01*
X199436190Y-3631904D01*
X199388571Y-3727142D01*
X199340952Y-3774761D01*
X199245714Y-3822380D01*
X199150476Y-3822380D01*
X199055238Y-3774761D01*
X199007619Y-3727142D01*
X198960000Y-3631904D01*
X198912380Y-3441428D01*
X198912380Y-3203333D01*
X198960000Y-3012857D01*
X199007619Y-2917619D01*
X199055238Y-2870000D01*
X199150476Y-2822380D01*
X200388571Y-2822380D02*
X199912380Y-2822380D01*
X199864761Y-3298571D01*
X199912380Y-3250952D01*
X200007619Y-3203333D01*
X200245714Y-3203333D01*
X200340952Y-3250952D01*
X200388571Y-3298571D01*
X200436190Y-3393809D01*
X200436190Y-3631904D01*
X200388571Y-3727142D01*
X200340952Y-3774761D01*
X200245714Y-3822380D01*
X200007619Y-3822380D01*
X199912380Y-3774761D01*
X199864761Y-3727142D01*
X200626666Y-3917619D02*
X201388571Y-3917619D01*
X201483809Y-2822380D02*
X202055238Y-2822380D01*
X201769523Y-3822380D02*
X201769523Y-2822380D01*
X202579047Y-2822380D02*
X202769523Y-2822380D01*
X202864761Y-2870000D01*
X202960000Y-2965238D01*
X203007619Y-3155714D01*
X203007619Y-3489047D01*
X202960000Y-3679523D01*
X202864761Y-3774761D01*
X202769523Y-3822380D01*
X202579047Y-3822380D01*
X202483809Y-3774761D01*
X202388571Y-3679523D01*
X202340952Y-3489047D01*
X202340952Y-3155714D01*
X202388571Y-2965238D01*
X202483809Y-2870000D01*
X202579047Y-2822380D01*
X203388571Y-2917619D02*
X203436190Y-2870000D01*
X203531428Y-2822380D01*
X203769523Y-2822380D01*
X203864761Y-2870000D01*
X203912380Y-2917619D01*
X203960000Y-3012857D01*
X203960000Y-3108095D01*
X203912380Y-3250952D01*
X203340952Y-3822380D01*
X203960000Y-3822380D01*
X204340952Y-2917619D02*
X204388571Y-2870000D01*
X204483809Y-2822380D01*
X204721904Y-2822380D01*
X204817142Y-2870000D01*
X204864761Y-2917619D01*
X204912380Y-3012857D01*
X204912380Y-3108095D01*
X204864761Y-3250952D01*
X204293333Y-3822380D01*
X204912380Y-3822380D01*
X205531428Y-2822380D02*
X205626666Y-2822380D01*
X205721904Y-2870000D01*
X205769523Y-2917619D01*
X205817142Y-3012857D01*
X205864761Y-3203333D01*
X205864761Y-3441428D01*
X205817142Y-3631904D01*
X205769523Y-3727142D01*
X205721904Y-3774761D01*
X205626666Y-3822380D01*
X205531428Y-3822380D01*
X205436190Y-3774761D01*
X205388571Y-3727142D01*
X205340952Y-3631904D01*
X205293333Y-3441428D01*
X205293333Y-3203333D01*
X205340952Y-3012857D01*
X205388571Y-2917619D01*
X205436190Y-2870000D01*
X205531428Y-2822380D01*
X199698095Y-9592380D02*
X199698095Y-10401904D01*
X199745714Y-10497142D01*
X199793333Y-10544761D01*
X199888571Y-10592380D01*
X200079047Y-10592380D01*
X200174285Y-10544761D01*
X200221904Y-10497142D01*
X200269523Y-10401904D01*
X200269523Y-9592380D01*
X201174285Y-9925714D02*
X201174285Y-10592380D01*
X200936190Y-9544761D02*
X200698095Y-10259047D01*
X201317142Y-10259047D01*
%TO.C,U3*%
X192934761Y-21362380D02*
X192458571Y-21362380D01*
X192458571Y-20362380D01*
X193268095Y-21362380D02*
X193268095Y-20362380D01*
X193506190Y-20362380D01*
X193649047Y-20410000D01*
X193744285Y-20505238D01*
X193791904Y-20600476D01*
X193839523Y-20790952D01*
X193839523Y-20933809D01*
X193791904Y-21124285D01*
X193744285Y-21219523D01*
X193649047Y-21314761D01*
X193506190Y-21362380D01*
X193268095Y-21362380D01*
X194791904Y-21362380D02*
X194220476Y-21362380D01*
X194506190Y-21362380D02*
X194506190Y-20362380D01*
X194410952Y-20505238D01*
X194315714Y-20600476D01*
X194220476Y-20648095D01*
X195744285Y-21362380D02*
X195172857Y-21362380D01*
X195458571Y-21362380D02*
X195458571Y-20362380D01*
X195363333Y-20505238D01*
X195268095Y-20600476D01*
X195172857Y-20648095D01*
X196696666Y-21362380D02*
X196125238Y-21362380D01*
X196410952Y-21362380D02*
X196410952Y-20362380D01*
X196315714Y-20505238D01*
X196220476Y-20600476D01*
X196125238Y-20648095D01*
X197030000Y-20362380D02*
X197696666Y-20362380D01*
X197268095Y-21362380D01*
X198030000Y-21314761D02*
X198172857Y-21362380D01*
X198410952Y-21362380D01*
X198506190Y-21314761D01*
X198553809Y-21267142D01*
X198601428Y-21171904D01*
X198601428Y-21076666D01*
X198553809Y-20981428D01*
X198506190Y-20933809D01*
X198410952Y-20886190D01*
X198220476Y-20838571D01*
X198125238Y-20790952D01*
X198077619Y-20743333D01*
X198030000Y-20648095D01*
X198030000Y-20552857D01*
X198077619Y-20457619D01*
X198125238Y-20410000D01*
X198220476Y-20362380D01*
X198458571Y-20362380D01*
X198601428Y-20410000D01*
X198934761Y-20362380D02*
X199553809Y-20362380D01*
X199220476Y-20743333D01*
X199363333Y-20743333D01*
X199458571Y-20790952D01*
X199506190Y-20838571D01*
X199553809Y-20933809D01*
X199553809Y-21171904D01*
X199506190Y-21267142D01*
X199458571Y-21314761D01*
X199363333Y-21362380D01*
X199077619Y-21362380D01*
X198982380Y-21314761D01*
X198934761Y-21267142D01*
X199887142Y-20362380D02*
X200506190Y-20362380D01*
X200172857Y-20743333D01*
X200315714Y-20743333D01*
X200410952Y-20790952D01*
X200458571Y-20838571D01*
X200506190Y-20933809D01*
X200506190Y-21171904D01*
X200458571Y-21267142D01*
X200410952Y-21314761D01*
X200315714Y-21362380D01*
X200030000Y-21362380D01*
X199934761Y-21314761D01*
X199887142Y-21267142D01*
X200791904Y-20362380D02*
X201363333Y-20362380D01*
X201077619Y-21362380D02*
X201077619Y-20362380D01*
X202268095Y-21362380D02*
X201934761Y-20886190D01*
X201696666Y-21362380D02*
X201696666Y-20362380D01*
X202077619Y-20362380D01*
X202172857Y-20410000D01*
X202220476Y-20457619D01*
X202268095Y-20552857D01*
X202268095Y-20695714D01*
X202220476Y-20790952D01*
X202172857Y-20838571D01*
X202077619Y-20886190D01*
X201696666Y-20886190D01*
X202458571Y-21457619D02*
X203220476Y-21457619D01*
X203410952Y-21314761D02*
X203553809Y-21362380D01*
X203791904Y-21362380D01*
X203887142Y-21314761D01*
X203934761Y-21267142D01*
X203982380Y-21171904D01*
X203982380Y-21076666D01*
X203934761Y-20981428D01*
X203887142Y-20933809D01*
X203791904Y-20886190D01*
X203601428Y-20838571D01*
X203506190Y-20790952D01*
X203458571Y-20743333D01*
X203410952Y-20648095D01*
X203410952Y-20552857D01*
X203458571Y-20457619D01*
X203506190Y-20410000D01*
X203601428Y-20362380D01*
X203839523Y-20362380D01*
X203982380Y-20410000D01*
X204601428Y-20362380D02*
X204791904Y-20362380D01*
X204887142Y-20410000D01*
X204982380Y-20505238D01*
X205030000Y-20695714D01*
X205030000Y-21029047D01*
X204982380Y-21219523D01*
X204887142Y-21314761D01*
X204791904Y-21362380D01*
X204601428Y-21362380D01*
X204506190Y-21314761D01*
X204410952Y-21219523D01*
X204363333Y-21029047D01*
X204363333Y-20695714D01*
X204410952Y-20505238D01*
X204506190Y-20410000D01*
X204601428Y-20362380D01*
X205315714Y-20362380D02*
X205887142Y-20362380D01*
X205601428Y-21362380D02*
X205601428Y-20362380D01*
X206172857Y-20457619D02*
X206220476Y-20410000D01*
X206315714Y-20362380D01*
X206553809Y-20362380D01*
X206649047Y-20410000D01*
X206696666Y-20457619D01*
X206744285Y-20552857D01*
X206744285Y-20648095D01*
X206696666Y-20790952D01*
X206125238Y-21362380D01*
X206744285Y-21362380D01*
X207125238Y-20457619D02*
X207172857Y-20410000D01*
X207268095Y-20362380D01*
X207506190Y-20362380D01*
X207601428Y-20410000D01*
X207649047Y-20457619D01*
X207696666Y-20552857D01*
X207696666Y-20648095D01*
X207649047Y-20790952D01*
X207077619Y-21362380D01*
X207696666Y-21362380D01*
X208029999Y-20362380D02*
X208649047Y-20362380D01*
X208315714Y-20743333D01*
X208458571Y-20743333D01*
X208553809Y-20790952D01*
X208601428Y-20838571D01*
X208649047Y-20933809D01*
X208649047Y-21171904D01*
X208601428Y-21267142D01*
X208553809Y-21314761D01*
X208458571Y-21362380D01*
X208172857Y-21362380D01*
X208077619Y-21314761D01*
X208029999Y-21267142D01*
X199768095Y-13592380D02*
X199768095Y-14401904D01*
X199815714Y-14497142D01*
X199863333Y-14544761D01*
X199958571Y-14592380D01*
X200149047Y-14592380D01*
X200244285Y-14544761D01*
X200291904Y-14497142D01*
X200339523Y-14401904D01*
X200339523Y-13592380D01*
X200720476Y-13592380D02*
X201339523Y-13592380D01*
X201006190Y-13973333D01*
X201149047Y-13973333D01*
X201244285Y-14020952D01*
X201291904Y-14068571D01*
X201339523Y-14163809D01*
X201339523Y-14401904D01*
X201291904Y-14497142D01*
X201244285Y-14544761D01*
X201149047Y-14592380D01*
X200863333Y-14592380D01*
X200768095Y-14544761D01*
X200720476Y-14497142D01*
%TO.C,J1*%
X196541904Y10242857D02*
X196494285Y10195238D01*
X196351428Y10147619D01*
X196256190Y10147619D01*
X196113333Y10195238D01*
X196018095Y10290476D01*
X195970476Y10385714D01*
X195922857Y10576190D01*
X195922857Y10719047D01*
X195970476Y10909523D01*
X196018095Y11004761D01*
X196113333Y11100000D01*
X196256190Y11147619D01*
X196351428Y11147619D01*
X196494285Y11100000D01*
X196541904Y11052380D01*
X197113333Y10147619D02*
X197018095Y10195238D01*
X196970476Y10242857D01*
X196922857Y10338095D01*
X196922857Y10623809D01*
X196970476Y10719047D01*
X197018095Y10766666D01*
X197113333Y10814285D01*
X197256190Y10814285D01*
X197351428Y10766666D01*
X197399047Y10719047D01*
X197446666Y10623809D01*
X197446666Y10338095D01*
X197399047Y10242857D01*
X197351428Y10195238D01*
X197256190Y10147619D01*
X197113333Y10147619D01*
X197875238Y10814285D02*
X197875238Y10147619D01*
X197875238Y10719047D02*
X197922857Y10766666D01*
X198018095Y10814285D01*
X198160952Y10814285D01*
X198256190Y10766666D01*
X198303809Y10671428D01*
X198303809Y10147619D01*
X198780000Y10814285D02*
X198780000Y10147619D01*
X198780000Y10719047D02*
X198827619Y10766666D01*
X198922857Y10814285D01*
X199065714Y10814285D01*
X199160952Y10766666D01*
X199208571Y10671428D01*
X199208571Y10147619D01*
X199446666Y10052380D02*
X200208571Y10052380D01*
X200637142Y11147619D02*
X200732380Y11147619D01*
X200827619Y11100000D01*
X200875238Y11052380D01*
X200922857Y10957142D01*
X200970476Y10766666D01*
X200970476Y10528571D01*
X200922857Y10338095D01*
X200875238Y10242857D01*
X200827619Y10195238D01*
X200732380Y10147619D01*
X200637142Y10147619D01*
X200541904Y10195238D01*
X200494285Y10242857D01*
X200446666Y10338095D01*
X200399047Y10528571D01*
X200399047Y10766666D01*
X200446666Y10957142D01*
X200494285Y11052380D01*
X200541904Y11100000D01*
X200637142Y11147619D01*
X201922857Y10147619D02*
X201351428Y10147619D01*
X201637142Y10147619D02*
X201637142Y11147619D01*
X201541904Y11004761D01*
X201446666Y10909523D01*
X201351428Y10861904D01*
X202256190Y10147619D02*
X202780000Y10814285D01*
X202256190Y10814285D02*
X202780000Y10147619D01*
X203351428Y11147619D02*
X203446666Y11147619D01*
X203541904Y11100000D01*
X203589523Y11052380D01*
X203637142Y10957142D01*
X203684761Y10766666D01*
X203684761Y10528571D01*
X203637142Y10338095D01*
X203589523Y10242857D01*
X203541904Y10195238D01*
X203446666Y10147619D01*
X203351428Y10147619D01*
X203256190Y10195238D01*
X203208571Y10242857D01*
X203160952Y10338095D01*
X203113333Y10528571D01*
X203113333Y10766666D01*
X203160952Y10957142D01*
X203208571Y11052380D01*
X203256190Y11100000D01*
X203351428Y11147619D01*
X204065714Y11052380D02*
X204113333Y11100000D01*
X204208571Y11147619D01*
X204446666Y11147619D01*
X204541904Y11100000D01*
X204589523Y11052380D01*
X204637142Y10957142D01*
X204637142Y10861904D01*
X204589523Y10719047D01*
X204018095Y10147619D01*
X204637142Y10147619D01*
X199946666Y8687619D02*
X199946666Y7973333D01*
X199899047Y7830476D01*
X199803809Y7735238D01*
X199660952Y7687619D01*
X199565714Y7687619D01*
X200946666Y7687619D02*
X200375238Y7687619D01*
X200660952Y7687619D02*
X200660952Y8687619D01*
X200565714Y8544761D01*
X200470476Y8449523D01*
X200375238Y8401904D01*
%TO.C,NiHALL1*%
X138861904Y-15267142D02*
X138814285Y-15314761D01*
X138671428Y-15362380D01*
X138576190Y-15362380D01*
X138433333Y-15314761D01*
X138338095Y-15219523D01*
X138290476Y-15124285D01*
X138242857Y-14933809D01*
X138242857Y-14790952D01*
X138290476Y-14600476D01*
X138338095Y-14505238D01*
X138433333Y-14410000D01*
X138576190Y-14362380D01*
X138671428Y-14362380D01*
X138814285Y-14410000D01*
X138861904Y-14457619D01*
X139433333Y-15362380D02*
X139338095Y-15314761D01*
X139290476Y-15267142D01*
X139242857Y-15171904D01*
X139242857Y-14886190D01*
X139290476Y-14790952D01*
X139338095Y-14743333D01*
X139433333Y-14695714D01*
X139576190Y-14695714D01*
X139671428Y-14743333D01*
X139719047Y-14790952D01*
X139766666Y-14886190D01*
X139766666Y-15171904D01*
X139719047Y-15267142D01*
X139671428Y-15314761D01*
X139576190Y-15362380D01*
X139433333Y-15362380D01*
X140195238Y-14695714D02*
X140195238Y-15362380D01*
X140195238Y-14790952D02*
X140242857Y-14743333D01*
X140338095Y-14695714D01*
X140480952Y-14695714D01*
X140576190Y-14743333D01*
X140623809Y-14838571D01*
X140623809Y-15362380D01*
X141100000Y-14695714D02*
X141100000Y-15362380D01*
X141100000Y-14790952D02*
X141147619Y-14743333D01*
X141242857Y-14695714D01*
X141385714Y-14695714D01*
X141480952Y-14743333D01*
X141528571Y-14838571D01*
X141528571Y-15362380D01*
X141766666Y-15457619D02*
X142528571Y-15457619D01*
X142957142Y-14362380D02*
X143052380Y-14362380D01*
X143147619Y-14410000D01*
X143195238Y-14457619D01*
X143242857Y-14552857D01*
X143290476Y-14743333D01*
X143290476Y-14981428D01*
X143242857Y-15171904D01*
X143195238Y-15267142D01*
X143147619Y-15314761D01*
X143052380Y-15362380D01*
X142957142Y-15362380D01*
X142861904Y-15314761D01*
X142814285Y-15267142D01*
X142766666Y-15171904D01*
X142719047Y-14981428D01*
X142719047Y-14743333D01*
X142766666Y-14552857D01*
X142814285Y-14457619D01*
X142861904Y-14410000D01*
X142957142Y-14362380D01*
X144242857Y-15362380D02*
X143671428Y-15362380D01*
X143957142Y-15362380D02*
X143957142Y-14362380D01*
X143861904Y-14505238D01*
X143766666Y-14600476D01*
X143671428Y-14648095D01*
X144576190Y-15362380D02*
X145100000Y-14695714D01*
X144576190Y-14695714D02*
X145100000Y-15362380D01*
X145671428Y-14362380D02*
X145766666Y-14362380D01*
X145861904Y-14410000D01*
X145909523Y-14457619D01*
X145957142Y-14552857D01*
X146004761Y-14743333D01*
X146004761Y-14981428D01*
X145957142Y-15171904D01*
X145909523Y-15267142D01*
X145861904Y-15314761D01*
X145766666Y-15362380D01*
X145671428Y-15362380D01*
X145576190Y-15314761D01*
X145528571Y-15267142D01*
X145480952Y-15171904D01*
X145433333Y-14981428D01*
X145433333Y-14743333D01*
X145480952Y-14552857D01*
X145528571Y-14457619D01*
X145576190Y-14410000D01*
X145671428Y-14362380D01*
X146338095Y-14362380D02*
X146957142Y-14362380D01*
X146623809Y-14743333D01*
X146766666Y-14743333D01*
X146861904Y-14790952D01*
X146909523Y-14838571D01*
X146957142Y-14933809D01*
X146957142Y-15171904D01*
X146909523Y-15267142D01*
X146861904Y-15314761D01*
X146766666Y-15362380D01*
X146480952Y-15362380D01*
X146385714Y-15314761D01*
X146338095Y-15267142D01*
X143052380Y-12801904D02*
X142052380Y-12801904D01*
X143052380Y-12230476D01*
X142052380Y-12230476D01*
X143052380Y-11754285D02*
X142385714Y-11754285D01*
X142052380Y-11754285D02*
X142100000Y-11801904D01*
X142147619Y-11754285D01*
X142100000Y-11706666D01*
X142052380Y-11754285D01*
X142147619Y-11754285D01*
X143052380Y-11278095D02*
X142052380Y-11278095D01*
X142528571Y-11278095D02*
X142528571Y-10706666D01*
X143052380Y-10706666D02*
X142052380Y-10706666D01*
X142766666Y-10278095D02*
X142766666Y-9801904D01*
X143052380Y-10373333D02*
X142052380Y-10040000D01*
X143052380Y-9706666D01*
X143052380Y-8897142D02*
X143052380Y-9373333D01*
X142052380Y-9373333D01*
X143052380Y-8087619D02*
X143052380Y-8563809D01*
X142052380Y-8563809D01*
X143052380Y-7230476D02*
X143052380Y-7801904D01*
X143052380Y-7516190D02*
X142052380Y-7516190D01*
X142195238Y-7611428D01*
X142290476Y-7706666D01*
X142338095Y-7801904D01*
%TO.C,U1*%
X157152380Y-32052380D02*
X156676190Y-32052380D01*
X156676190Y-31052380D01*
X157628571Y-32052380D02*
X157533333Y-32004761D01*
X157485714Y-31957142D01*
X157438095Y-31861904D01*
X157438095Y-31576190D01*
X157485714Y-31480952D01*
X157533333Y-31433333D01*
X157628571Y-31385714D01*
X157771428Y-31385714D01*
X157866666Y-31433333D01*
X157914285Y-31480952D01*
X157961904Y-31576190D01*
X157961904Y-31861904D01*
X157914285Y-31957142D01*
X157866666Y-32004761D01*
X157771428Y-32052380D01*
X157628571Y-32052380D01*
X158961904Y-32052380D02*
X158628571Y-31576190D01*
X158390476Y-32052380D02*
X158390476Y-31052380D01*
X158771428Y-31052380D01*
X158866666Y-31100000D01*
X158914285Y-31147619D01*
X158961904Y-31242857D01*
X158961904Y-31385714D01*
X158914285Y-31480952D01*
X158866666Y-31528571D01*
X158771428Y-31576190D01*
X158390476Y-31576190D01*
X159819047Y-32052380D02*
X159819047Y-31528571D01*
X159771428Y-31433333D01*
X159676190Y-31385714D01*
X159485714Y-31385714D01*
X159390476Y-31433333D01*
X159819047Y-32004761D02*
X159723809Y-32052380D01*
X159485714Y-32052380D01*
X159390476Y-32004761D01*
X159342857Y-31909523D01*
X159342857Y-31814285D01*
X159390476Y-31719047D01*
X159485714Y-31671428D01*
X159723809Y-31671428D01*
X159819047Y-31623809D01*
X160200000Y-31052380D02*
X160819047Y-31052380D01*
X160485714Y-31433333D01*
X160628571Y-31433333D01*
X160723809Y-31480952D01*
X160771428Y-31528571D01*
X160819047Y-31623809D01*
X160819047Y-31861904D01*
X160771428Y-31957142D01*
X160723809Y-32004761D01*
X160628571Y-32052380D01*
X160342857Y-32052380D01*
X160247619Y-32004761D01*
X160200000Y-31957142D01*
X161200000Y-31147619D02*
X161247619Y-31100000D01*
X161342857Y-31052380D01*
X161580952Y-31052380D01*
X161676190Y-31100000D01*
X161723809Y-31147619D01*
X161771428Y-31242857D01*
X161771428Y-31338095D01*
X161723809Y-31480952D01*
X161152380Y-32052380D01*
X161771428Y-32052380D01*
X162200000Y-31052380D02*
X162200000Y-31861904D01*
X162247619Y-31957142D01*
X162295238Y-32004761D01*
X162390476Y-32052380D01*
X162580952Y-32052380D01*
X162676190Y-32004761D01*
X162723809Y-31957142D01*
X162771428Y-31861904D01*
X162771428Y-31052380D01*
X163676190Y-31385714D02*
X163676190Y-32052380D01*
X163438095Y-31004761D02*
X163200000Y-31719047D01*
X163819047Y-31719047D01*
%TO.C,D1*%
X140562142Y-24136515D02*
X139990714Y-24136515D01*
X140276428Y-24136515D02*
X140276428Y-23136515D01*
X140181190Y-23279373D01*
X140085952Y-23374611D01*
X139990714Y-23422230D01*
X140990714Y-24136515D02*
X140990714Y-23136515D01*
X141562142Y-24136515D01*
X141562142Y-23136515D01*
X142466904Y-23469849D02*
X142466904Y-24136515D01*
X142228809Y-23088896D02*
X141990714Y-23803182D01*
X142609761Y-23803182D01*
X143181190Y-23136515D02*
X143276428Y-23136515D01*
X143371666Y-23184135D01*
X143419285Y-23231754D01*
X143466904Y-23326992D01*
X143514523Y-23517468D01*
X143514523Y-23755563D01*
X143466904Y-23946039D01*
X143419285Y-24041277D01*
X143371666Y-24088896D01*
X143276428Y-24136515D01*
X143181190Y-24136515D01*
X143085952Y-24088896D01*
X143038333Y-24041277D01*
X142990714Y-23946039D01*
X142943095Y-23755563D01*
X142943095Y-23517468D01*
X142990714Y-23326992D01*
X143038333Y-23231754D01*
X143085952Y-23184135D01*
X143181190Y-23136515D01*
X144133571Y-23136515D02*
X144228809Y-23136515D01*
X144324047Y-23184135D01*
X144371666Y-23231754D01*
X144419285Y-23326992D01*
X144466904Y-23517468D01*
X144466904Y-23755563D01*
X144419285Y-23946039D01*
X144371666Y-24041277D01*
X144324047Y-24088896D01*
X144228809Y-24136515D01*
X144133571Y-24136515D01*
X144038333Y-24088896D01*
X143990714Y-24041277D01*
X143943095Y-23946039D01*
X143895476Y-23755563D01*
X143895476Y-23517468D01*
X143943095Y-23326992D01*
X143990714Y-23231754D01*
X144038333Y-23184135D01*
X144133571Y-23136515D01*
X145419285Y-24136515D02*
X144847857Y-24136515D01*
X145133571Y-24136515D02*
X145133571Y-23136515D01*
X145038333Y-23279373D01*
X144943095Y-23374611D01*
X144847857Y-23422230D01*
X142338095Y-21152380D02*
X142338095Y-20152380D01*
X142909523Y-21152380D02*
X142480952Y-20580952D01*
X142909523Y-20152380D02*
X142338095Y-20723809D01*
X141966904Y-17301745D02*
X141966904Y-16301745D01*
X142205000Y-16301745D01*
X142347857Y-16349365D01*
X142443095Y-16444603D01*
X142490714Y-16539841D01*
X142538333Y-16730317D01*
X142538333Y-16873174D01*
X142490714Y-17063650D01*
X142443095Y-17158888D01*
X142347857Y-17254126D01*
X142205000Y-17301745D01*
X141966904Y-17301745D01*
X143490714Y-17301745D02*
X142919285Y-17301745D01*
X143205000Y-17301745D02*
X143205000Y-16301745D01*
X143109761Y-16444603D01*
X143014523Y-16539841D01*
X142919285Y-16587460D01*
%TO.C,BOTO1*%
X180061904Y-11767142D02*
X180014285Y-11814761D01*
X179871428Y-11862380D01*
X179776190Y-11862380D01*
X179633333Y-11814761D01*
X179538095Y-11719523D01*
X179490476Y-11624285D01*
X179442857Y-11433809D01*
X179442857Y-11290952D01*
X179490476Y-11100476D01*
X179538095Y-11005238D01*
X179633333Y-10910000D01*
X179776190Y-10862380D01*
X179871428Y-10862380D01*
X180014285Y-10910000D01*
X180061904Y-10957619D01*
X180633333Y-11862380D02*
X180538095Y-11814761D01*
X180490476Y-11767142D01*
X180442857Y-11671904D01*
X180442857Y-11386190D01*
X180490476Y-11290952D01*
X180538095Y-11243333D01*
X180633333Y-11195714D01*
X180776190Y-11195714D01*
X180871428Y-11243333D01*
X180919047Y-11290952D01*
X180966666Y-11386190D01*
X180966666Y-11671904D01*
X180919047Y-11767142D01*
X180871428Y-11814761D01*
X180776190Y-11862380D01*
X180633333Y-11862380D01*
X181395238Y-11195714D02*
X181395238Y-11862380D01*
X181395238Y-11290952D02*
X181442857Y-11243333D01*
X181538095Y-11195714D01*
X181680952Y-11195714D01*
X181776190Y-11243333D01*
X181823809Y-11338571D01*
X181823809Y-11862380D01*
X182300000Y-11195714D02*
X182300000Y-11862380D01*
X182300000Y-11290952D02*
X182347619Y-11243333D01*
X182442857Y-11195714D01*
X182585714Y-11195714D01*
X182680952Y-11243333D01*
X182728571Y-11338571D01*
X182728571Y-11862380D01*
X182966666Y-11957619D02*
X183728571Y-11957619D01*
X184157142Y-10862380D02*
X184252380Y-10862380D01*
X184347619Y-10910000D01*
X184395238Y-10957619D01*
X184442857Y-11052857D01*
X184490476Y-11243333D01*
X184490476Y-11481428D01*
X184442857Y-11671904D01*
X184395238Y-11767142D01*
X184347619Y-11814761D01*
X184252380Y-11862380D01*
X184157142Y-11862380D01*
X184061904Y-11814761D01*
X184014285Y-11767142D01*
X183966666Y-11671904D01*
X183919047Y-11481428D01*
X183919047Y-11243333D01*
X183966666Y-11052857D01*
X184014285Y-10957619D01*
X184061904Y-10910000D01*
X184157142Y-10862380D01*
X185442857Y-11862380D02*
X184871428Y-11862380D01*
X185157142Y-11862380D02*
X185157142Y-10862380D01*
X185061904Y-11005238D01*
X184966666Y-11100476D01*
X184871428Y-11148095D01*
X185776190Y-11862380D02*
X186300000Y-11195714D01*
X185776190Y-11195714D02*
X186300000Y-11862380D01*
X186871428Y-10862380D02*
X186966666Y-10862380D01*
X187061904Y-10910000D01*
X187109523Y-10957619D01*
X187157142Y-11052857D01*
X187204761Y-11243333D01*
X187204761Y-11481428D01*
X187157142Y-11671904D01*
X187109523Y-11767142D01*
X187061904Y-11814761D01*
X186966666Y-11862380D01*
X186871428Y-11862380D01*
X186776190Y-11814761D01*
X186728571Y-11767142D01*
X186680952Y-11671904D01*
X186633333Y-11481428D01*
X186633333Y-11243333D01*
X186680952Y-11052857D01*
X186728571Y-10957619D01*
X186776190Y-10910000D01*
X186871428Y-10862380D01*
X187538095Y-10862380D02*
X188157142Y-10862380D01*
X187823809Y-11243333D01*
X187966666Y-11243333D01*
X188061904Y-11290952D01*
X188109523Y-11338571D01*
X188157142Y-11433809D01*
X188157142Y-11671904D01*
X188109523Y-11767142D01*
X188061904Y-11814761D01*
X187966666Y-11862380D01*
X187680952Y-11862380D01*
X187585714Y-11814761D01*
X187538095Y-11767142D01*
X183728571Y-8373333D02*
X183776190Y-8230476D01*
X183823809Y-8182857D01*
X183919047Y-8135238D01*
X184061904Y-8135238D01*
X184157142Y-8182857D01*
X184204761Y-8230476D01*
X184252380Y-8325714D01*
X184252380Y-8706666D01*
X183252380Y-8706666D01*
X183252380Y-8373333D01*
X183300000Y-8278095D01*
X183347619Y-8230476D01*
X183442857Y-8182857D01*
X183538095Y-8182857D01*
X183633333Y-8230476D01*
X183680952Y-8278095D01*
X183728571Y-8373333D01*
X183728571Y-8706666D01*
X183252380Y-7516190D02*
X183252380Y-7325714D01*
X183300000Y-7230476D01*
X183395238Y-7135238D01*
X183585714Y-7087619D01*
X183919047Y-7087619D01*
X184109523Y-7135238D01*
X184204761Y-7230476D01*
X184252380Y-7325714D01*
X184252380Y-7516190D01*
X184204761Y-7611428D01*
X184109523Y-7706666D01*
X183919047Y-7754285D01*
X183585714Y-7754285D01*
X183395238Y-7706666D01*
X183300000Y-7611428D01*
X183252380Y-7516190D01*
X183252380Y-6801904D02*
X183252380Y-6230476D01*
X184252380Y-6516190D02*
X183252380Y-6516190D01*
X183252380Y-5706666D02*
X183252380Y-5516190D01*
X183300000Y-5420952D01*
X183395238Y-5325714D01*
X183585714Y-5278095D01*
X183919047Y-5278095D01*
X184109523Y-5325714D01*
X184204761Y-5420952D01*
X184252380Y-5516190D01*
X184252380Y-5706666D01*
X184204761Y-5801904D01*
X184109523Y-5897142D01*
X183919047Y-5944761D01*
X183585714Y-5944761D01*
X183395238Y-5897142D01*
X183300000Y-5801904D01*
X183252380Y-5706666D01*
X184252380Y-4325714D02*
X184252380Y-4897142D01*
X184252380Y-4611428D02*
X183252380Y-4611428D01*
X183395238Y-4706666D01*
X183490476Y-4801904D01*
X183538095Y-4897142D01*
%TO.C,U2*%
X200552380Y-44190476D02*
X199552380Y-44190476D01*
X199552380Y-43952380D01*
X199600000Y-43809523D01*
X199695238Y-43714285D01*
X199790476Y-43666666D01*
X199980952Y-43619047D01*
X200123809Y-43619047D01*
X200314285Y-43666666D01*
X200409523Y-43714285D01*
X200504761Y-43809523D01*
X200552380Y-43952380D01*
X200552380Y-44190476D01*
X200504761Y-43238095D02*
X200552380Y-43095238D01*
X200552380Y-42857142D01*
X200504761Y-42761904D01*
X200457142Y-42714285D01*
X200361904Y-42666666D01*
X200266666Y-42666666D01*
X200171428Y-42714285D01*
X200123809Y-42761904D01*
X200076190Y-42857142D01*
X200028571Y-43047619D01*
X199980952Y-43142857D01*
X199933333Y-43190476D01*
X199838095Y-43238095D01*
X199742857Y-43238095D01*
X199647619Y-43190476D01*
X199600000Y-43142857D01*
X199552380Y-43047619D01*
X199552380Y-42809523D01*
X199600000Y-42666666D01*
X199552380Y-42333333D02*
X199552380Y-41714285D01*
X199933333Y-42047619D01*
X199933333Y-41904761D01*
X199980952Y-41809523D01*
X200028571Y-41761904D01*
X200123809Y-41714285D01*
X200361904Y-41714285D01*
X200457142Y-41761904D01*
X200504761Y-41809523D01*
X200552380Y-41904761D01*
X200552380Y-42190476D01*
X200504761Y-42285714D01*
X200457142Y-42333333D01*
X199647619Y-41333333D02*
X199600000Y-41285714D01*
X199552380Y-41190476D01*
X199552380Y-40952380D01*
X199600000Y-40857142D01*
X199647619Y-40809523D01*
X199742857Y-40761904D01*
X199838095Y-40761904D01*
X199980952Y-40809523D01*
X200552380Y-41380952D01*
X200552380Y-40761904D01*
X199552380Y-40428571D02*
X199552380Y-39809523D01*
X199933333Y-40142857D01*
X199933333Y-40000000D01*
X199980952Y-39904761D01*
X200028571Y-39857142D01*
X200123809Y-39809523D01*
X200361904Y-39809523D01*
X200457142Y-39857142D01*
X200504761Y-39904761D01*
X200552380Y-40000000D01*
X200552380Y-40285714D01*
X200504761Y-40380952D01*
X200457142Y-40428571D01*
X200552380Y-38857142D02*
X200552380Y-39428571D01*
X200552380Y-39142857D02*
X199552380Y-39142857D01*
X199695238Y-39238095D01*
X199790476Y-39333333D01*
X199838095Y-39428571D01*
X200552380Y-38428571D02*
X199552380Y-38428571D01*
X200266666Y-38095238D01*
X199552380Y-37761904D01*
X200552380Y-37761904D01*
X199552380Y-37380952D02*
X199552380Y-36714285D01*
X200552380Y-37380952D01*
X200552380Y-36714285D01*
%TO.C,OLED1*%
X149861904Y-67607142D02*
X149814285Y-67654761D01*
X149671428Y-67702380D01*
X149576190Y-67702380D01*
X149433333Y-67654761D01*
X149338095Y-67559523D01*
X149290476Y-67464285D01*
X149242857Y-67273809D01*
X149242857Y-67130952D01*
X149290476Y-66940476D01*
X149338095Y-66845238D01*
X149433333Y-66750000D01*
X149576190Y-66702380D01*
X149671428Y-66702380D01*
X149814285Y-66750000D01*
X149861904Y-66797619D01*
X150433333Y-67702380D02*
X150338095Y-67654761D01*
X150290476Y-67607142D01*
X150242857Y-67511904D01*
X150242857Y-67226190D01*
X150290476Y-67130952D01*
X150338095Y-67083333D01*
X150433333Y-67035714D01*
X150576190Y-67035714D01*
X150671428Y-67083333D01*
X150719047Y-67130952D01*
X150766666Y-67226190D01*
X150766666Y-67511904D01*
X150719047Y-67607142D01*
X150671428Y-67654761D01*
X150576190Y-67702380D01*
X150433333Y-67702380D01*
X151195238Y-67035714D02*
X151195238Y-67702380D01*
X151195238Y-67130952D02*
X151242857Y-67083333D01*
X151338095Y-67035714D01*
X151480952Y-67035714D01*
X151576190Y-67083333D01*
X151623809Y-67178571D01*
X151623809Y-67702380D01*
X152100000Y-67035714D02*
X152100000Y-67702380D01*
X152100000Y-67130952D02*
X152147619Y-67083333D01*
X152242857Y-67035714D01*
X152385714Y-67035714D01*
X152480952Y-67083333D01*
X152528571Y-67178571D01*
X152528571Y-67702380D01*
X152766666Y-67797619D02*
X153528571Y-67797619D01*
X153957142Y-66702380D02*
X154052380Y-66702380D01*
X154147619Y-66750000D01*
X154195238Y-66797619D01*
X154242857Y-66892857D01*
X154290476Y-67083333D01*
X154290476Y-67321428D01*
X154242857Y-67511904D01*
X154195238Y-67607142D01*
X154147619Y-67654761D01*
X154052380Y-67702380D01*
X153957142Y-67702380D01*
X153861904Y-67654761D01*
X153814285Y-67607142D01*
X153766666Y-67511904D01*
X153719047Y-67321428D01*
X153719047Y-67083333D01*
X153766666Y-66892857D01*
X153814285Y-66797619D01*
X153861904Y-66750000D01*
X153957142Y-66702380D01*
X155242857Y-67702380D02*
X154671428Y-67702380D01*
X154957142Y-67702380D02*
X154957142Y-66702380D01*
X154861904Y-66845238D01*
X154766666Y-66940476D01*
X154671428Y-66988095D01*
X155576190Y-67702380D02*
X156100000Y-67035714D01*
X155576190Y-67035714D02*
X156100000Y-67702380D01*
X156671428Y-66702380D02*
X156766666Y-66702380D01*
X156861904Y-66750000D01*
X156909523Y-66797619D01*
X156957142Y-66892857D01*
X157004761Y-67083333D01*
X157004761Y-67321428D01*
X156957142Y-67511904D01*
X156909523Y-67607142D01*
X156861904Y-67654761D01*
X156766666Y-67702380D01*
X156671428Y-67702380D01*
X156576190Y-67654761D01*
X156528571Y-67607142D01*
X156480952Y-67511904D01*
X156433333Y-67321428D01*
X156433333Y-67083333D01*
X156480952Y-66892857D01*
X156528571Y-66797619D01*
X156576190Y-66750000D01*
X156671428Y-66702380D01*
X157576190Y-67130952D02*
X157480952Y-67083333D01*
X157433333Y-67035714D01*
X157385714Y-66940476D01*
X157385714Y-66892857D01*
X157433333Y-66797619D01*
X157480952Y-66750000D01*
X157576190Y-66702380D01*
X157766666Y-66702380D01*
X157861904Y-66750000D01*
X157909523Y-66797619D01*
X157957142Y-66892857D01*
X157957142Y-66940476D01*
X157909523Y-67035714D01*
X157861904Y-67083333D01*
X157766666Y-67130952D01*
X157576190Y-67130952D01*
X157480952Y-67178571D01*
X157433333Y-67226190D01*
X157385714Y-67321428D01*
X157385714Y-67511904D01*
X157433333Y-67607142D01*
X157480952Y-67654761D01*
X157576190Y-67702380D01*
X157766666Y-67702380D01*
X157861904Y-67654761D01*
X157909523Y-67607142D01*
X157957142Y-67511904D01*
X157957142Y-67321428D01*
X157909523Y-67226190D01*
X157861904Y-67178571D01*
X157766666Y-67130952D01*
%TO.C,M1*%
X174338095Y-23612380D02*
X174338095Y-22612380D01*
X174671428Y-23326666D01*
X175004761Y-22612380D01*
X175004761Y-23612380D01*
X175623809Y-23612380D02*
X175528571Y-23564761D01*
X175480952Y-23517142D01*
X175433333Y-23421904D01*
X175433333Y-23136190D01*
X175480952Y-23040952D01*
X175528571Y-22993333D01*
X175623809Y-22945714D01*
X175766666Y-22945714D01*
X175861904Y-22993333D01*
X175909523Y-23040952D01*
X175957142Y-23136190D01*
X175957142Y-23421904D01*
X175909523Y-23517142D01*
X175861904Y-23564761D01*
X175766666Y-23612380D01*
X175623809Y-23612380D01*
X176242857Y-22945714D02*
X176623809Y-22945714D01*
X176385714Y-22612380D02*
X176385714Y-23469523D01*
X176433333Y-23564761D01*
X176528571Y-23612380D01*
X176623809Y-23612380D01*
X177100000Y-23612380D02*
X177004761Y-23564761D01*
X176957142Y-23517142D01*
X176909523Y-23421904D01*
X176909523Y-23136190D01*
X176957142Y-23040952D01*
X177004761Y-22993333D01*
X177100000Y-22945714D01*
X177242857Y-22945714D01*
X177338095Y-22993333D01*
X177385714Y-23040952D01*
X177433333Y-23136190D01*
X177433333Y-23421904D01*
X177385714Y-23517142D01*
X177338095Y-23564761D01*
X177242857Y-23612380D01*
X177100000Y-23612380D01*
X177861904Y-23612380D02*
X177861904Y-22945714D01*
X177861904Y-23136190D02*
X177909523Y-23040952D01*
X177957142Y-22993333D01*
X178052380Y-22945714D01*
X178147619Y-22945714D01*
X178242857Y-23707619D02*
X179004761Y-23707619D01*
X179195238Y-23564761D02*
X179338095Y-23612380D01*
X179576190Y-23612380D01*
X179671428Y-23564761D01*
X179719047Y-23517142D01*
X179766666Y-23421904D01*
X179766666Y-23326666D01*
X179719047Y-23231428D01*
X179671428Y-23183809D01*
X179576190Y-23136190D01*
X179385714Y-23088571D01*
X179290476Y-23040952D01*
X179242857Y-22993333D01*
X179195238Y-22898095D01*
X179195238Y-22802857D01*
X179242857Y-22707619D01*
X179290476Y-22660000D01*
X179385714Y-22612380D01*
X179623809Y-22612380D01*
X179766666Y-22660000D01*
X180576190Y-23564761D02*
X180480952Y-23612380D01*
X180290476Y-23612380D01*
X180195238Y-23564761D01*
X180147619Y-23469523D01*
X180147619Y-23088571D01*
X180195238Y-22993333D01*
X180290476Y-22945714D01*
X180480952Y-22945714D01*
X180576190Y-22993333D01*
X180623809Y-23088571D01*
X180623809Y-23183809D01*
X180147619Y-23279047D01*
X181052380Y-23612380D02*
X181052380Y-22945714D01*
X181052380Y-23136190D02*
X181100000Y-23040952D01*
X181147619Y-22993333D01*
X181242857Y-22945714D01*
X181338095Y-22945714D01*
X181576190Y-22945714D02*
X181814285Y-23612380D01*
X182052380Y-22945714D01*
X182576190Y-23612380D02*
X182480952Y-23564761D01*
X182433333Y-23517142D01*
X182385714Y-23421904D01*
X182385714Y-23136190D01*
X182433333Y-23040952D01*
X182480952Y-22993333D01*
X182576190Y-22945714D01*
X182719047Y-22945714D01*
X182814285Y-22993333D01*
X182861904Y-23040952D01*
X182909523Y-23136190D01*
X182909523Y-23421904D01*
X182861904Y-23517142D01*
X182814285Y-23564761D01*
X182719047Y-23612380D01*
X182576190Y-23612380D01*
X179052380Y-19099523D02*
X178052380Y-19099523D01*
X178766666Y-18766190D01*
X178052380Y-18432857D01*
X179052380Y-18432857D01*
X179052380Y-17432857D02*
X179052380Y-18004285D01*
X179052380Y-17718571D02*
X178052380Y-17718571D01*
X178195238Y-17813809D01*
X178290476Y-17909047D01*
X178338095Y-18004285D01*
%TO.C,BOTO2*%
X174611904Y-11767142D02*
X174564285Y-11814761D01*
X174421428Y-11862380D01*
X174326190Y-11862380D01*
X174183333Y-11814761D01*
X174088095Y-11719523D01*
X174040476Y-11624285D01*
X173992857Y-11433809D01*
X173992857Y-11290952D01*
X174040476Y-11100476D01*
X174088095Y-11005238D01*
X174183333Y-10910000D01*
X174326190Y-10862380D01*
X174421428Y-10862380D01*
X174564285Y-10910000D01*
X174611904Y-10957619D01*
X175183333Y-11862380D02*
X175088095Y-11814761D01*
X175040476Y-11767142D01*
X174992857Y-11671904D01*
X174992857Y-11386190D01*
X175040476Y-11290952D01*
X175088095Y-11243333D01*
X175183333Y-11195714D01*
X175326190Y-11195714D01*
X175421428Y-11243333D01*
X175469047Y-11290952D01*
X175516666Y-11386190D01*
X175516666Y-11671904D01*
X175469047Y-11767142D01*
X175421428Y-11814761D01*
X175326190Y-11862380D01*
X175183333Y-11862380D01*
X175945238Y-11195714D02*
X175945238Y-11862380D01*
X175945238Y-11290952D02*
X175992857Y-11243333D01*
X176088095Y-11195714D01*
X176230952Y-11195714D01*
X176326190Y-11243333D01*
X176373809Y-11338571D01*
X176373809Y-11862380D01*
X176850000Y-11195714D02*
X176850000Y-11862380D01*
X176850000Y-11290952D02*
X176897619Y-11243333D01*
X176992857Y-11195714D01*
X177135714Y-11195714D01*
X177230952Y-11243333D01*
X177278571Y-11338571D01*
X177278571Y-11862380D01*
X177516666Y-11957619D02*
X178278571Y-11957619D01*
X178707142Y-10862380D02*
X178802380Y-10862380D01*
X178897619Y-10910000D01*
X178945238Y-10957619D01*
X178992857Y-11052857D01*
X179040476Y-11243333D01*
X179040476Y-11481428D01*
X178992857Y-11671904D01*
X178945238Y-11767142D01*
X178897619Y-11814761D01*
X178802380Y-11862380D01*
X178707142Y-11862380D01*
X178611904Y-11814761D01*
X178564285Y-11767142D01*
X178516666Y-11671904D01*
X178469047Y-11481428D01*
X178469047Y-11243333D01*
X178516666Y-11052857D01*
X178564285Y-10957619D01*
X178611904Y-10910000D01*
X178707142Y-10862380D01*
X179992857Y-11862380D02*
X179421428Y-11862380D01*
X179707142Y-11862380D02*
X179707142Y-10862380D01*
X179611904Y-11005238D01*
X179516666Y-11100476D01*
X179421428Y-11148095D01*
X180326190Y-11862380D02*
X180850000Y-11195714D01*
X180326190Y-11195714D02*
X180850000Y-11862380D01*
X181421428Y-10862380D02*
X181516666Y-10862380D01*
X181611904Y-10910000D01*
X181659523Y-10957619D01*
X181707142Y-11052857D01*
X181754761Y-11243333D01*
X181754761Y-11481428D01*
X181707142Y-11671904D01*
X181659523Y-11767142D01*
X181611904Y-11814761D01*
X181516666Y-11862380D01*
X181421428Y-11862380D01*
X181326190Y-11814761D01*
X181278571Y-11767142D01*
X181230952Y-11671904D01*
X181183333Y-11481428D01*
X181183333Y-11243333D01*
X181230952Y-11052857D01*
X181278571Y-10957619D01*
X181326190Y-10910000D01*
X181421428Y-10862380D01*
X182088095Y-10862380D02*
X182707142Y-10862380D01*
X182373809Y-11243333D01*
X182516666Y-11243333D01*
X182611904Y-11290952D01*
X182659523Y-11338571D01*
X182707142Y-11433809D01*
X182707142Y-11671904D01*
X182659523Y-11767142D01*
X182611904Y-11814761D01*
X182516666Y-11862380D01*
X182230952Y-11862380D01*
X182135714Y-11814761D01*
X182088095Y-11767142D01*
X178278571Y-8373333D02*
X178326190Y-8230476D01*
X178373809Y-8182857D01*
X178469047Y-8135238D01*
X178611904Y-8135238D01*
X178707142Y-8182857D01*
X178754761Y-8230476D01*
X178802380Y-8325714D01*
X178802380Y-8706666D01*
X177802380Y-8706666D01*
X177802380Y-8373333D01*
X177850000Y-8278095D01*
X177897619Y-8230476D01*
X177992857Y-8182857D01*
X178088095Y-8182857D01*
X178183333Y-8230476D01*
X178230952Y-8278095D01*
X178278571Y-8373333D01*
X178278571Y-8706666D01*
X177802380Y-7516190D02*
X177802380Y-7325714D01*
X177850000Y-7230476D01*
X177945238Y-7135238D01*
X178135714Y-7087619D01*
X178469047Y-7087619D01*
X178659523Y-7135238D01*
X178754761Y-7230476D01*
X178802380Y-7325714D01*
X178802380Y-7516190D01*
X178754761Y-7611428D01*
X178659523Y-7706666D01*
X178469047Y-7754285D01*
X178135714Y-7754285D01*
X177945238Y-7706666D01*
X177850000Y-7611428D01*
X177802380Y-7516190D01*
X177802380Y-6801904D02*
X177802380Y-6230476D01*
X178802380Y-6516190D02*
X177802380Y-6516190D01*
X177802380Y-5706666D02*
X177802380Y-5516190D01*
X177850000Y-5420952D01*
X177945238Y-5325714D01*
X178135714Y-5278095D01*
X178469047Y-5278095D01*
X178659523Y-5325714D01*
X178754761Y-5420952D01*
X178802380Y-5516190D01*
X178802380Y-5706666D01*
X178754761Y-5801904D01*
X178659523Y-5897142D01*
X178469047Y-5944761D01*
X178135714Y-5944761D01*
X177945238Y-5897142D01*
X177850000Y-5801904D01*
X177802380Y-5706666D01*
X177897619Y-4897142D02*
X177850000Y-4849523D01*
X177802380Y-4754285D01*
X177802380Y-4516190D01*
X177850000Y-4420952D01*
X177897619Y-4373333D01*
X177992857Y-4325714D01*
X178088095Y-4325714D01*
X178230952Y-4373333D01*
X178802380Y-4944761D01*
X178802380Y-4325714D01*
%TD*%
M02*
